<svg width="352" height="401" viewBox="0 0 352 401" fill="none" xmlns="http://www.w3.org/2000/svg">
<path d="M302.951 247.936L299.495 247.524C299.632 247.463 299.755 247.379 299.859 247.277L303.315 247.689C303.211 247.791 303.088 247.874 302.951 247.936" fill="#D0D0D0"/>
<path d="M303.315 247.664L299.859 247.252C300.124 247.054 300.368 246.834 300.587 246.594L304.043 247.005C303.876 247.284 303.623 247.512 303.315 247.664" fill="#D1D1D1"/>
<path d="M304.134 246.923L300.678 246.511C300.92 246.257 301.133 245.981 301.314 245.688L304.77 246.1C304.612 246.405 304.396 246.683 304.134 246.923Z" fill="#D2D2D2"/>
<path d="M304.769 246.1L301.313 245.688C301.579 245.36 301.793 245 301.95 244.618L305.406 245.03C305.23 245.403 305.017 245.761 304.769 246.1" fill="#D3D3D3"/>
<path d="M305.451 245.029L301.995 244.618C302.268 244.124 302.45 243.547 302.723 242.971L306.179 243.383C305.882 243.911 305.638 244.462 305.451 245.029" fill="#D4D4D4"/>
<path d="M306.044 243.383L302.588 242.971C303.051 241.383 303.326 239.755 303.406 238.114L306.862 238.526C306.82 240.17 306.545 241.802 306.044 243.383" fill="#D5D5D5"/>
<path d="M306.861 238.443L303.405 238.032V237.867L306.861 238.279V238.443Z" fill="#D4D4D4"/>
<path d="M306.863 238.361L303.498 237.949L305.044 7.27344L308.409 7.76739L306.863 238.361Z" fill="#D7D7D7"/>
<path d="M308.41 7.76731L304.954 7.35569C304.972 6.83291 304.941 6.30972 304.863 5.7915L308.319 6.20313C308.397 6.72135 308.428 7.24454 308.41 7.76731" fill="#D4D4D4"/>
<path d="M308.41 6.12063L304.954 5.709C304.863 5.29738 304.772 4.80342 304.681 4.47412L308.137 4.88575C308.271 5.28854 308.362 5.70206 308.41 6.12063" fill="#D3D3D3"/>
<path d="M308.182 4.88567L304.726 4.47404C304.602 4.12491 304.511 3.76689 304.453 3.40381L307.909 3.81544C308 4.14474 308.091 4.55637 308.182 4.88567Z" fill="#D2D2D2"/>
<path d="M307.864 3.89758L304.408 3.48595C304.263 3.141 304.08 2.81005 303.862 2.49805L307.318 2.90967C307.536 3.22151 307.719 3.55249 307.864 3.89758Z" fill="#D1D1D1"/>
<path d="M307.409 2.91008L303.953 2.49845C303.807 2.22241 303.591 1.98157 303.322 1.79558C303.053 1.60959 302.74 1.48372 302.407 1.42822L305.863 1.83985C306.409 1.83985 306.955 2.25148 307.409 2.91008Z" fill="#D0D0D0"/>
<path d="M304.68 2.08693L301.224 1.6753C301.573 1.46904 301.992 1.38154 302.406 1.42833L305.862 1.83995C305.449 1.81113 305.037 1.89732 304.68 2.08693" fill="#DBDBDB"/>
<path d="M304.68 0.686927L301.224 0.2753C301.626 0.0375285 302.115 -0.0508993 302.588 0.0283238L306.044 0.439951C305.576 0.442068 305.113 0.525927 304.68 0.686927" fill="#D0D0D0"/>
<path d="M7.91696 395.932L4.46094 395.438L299.497 247.417L302.953 247.91L7.91696 395.932Z" fill="#D0D0D0"/>
<path d="M6.82712 396.179L3.37109 395.767C3.57634 395.802 3.78726 395.798 3.99069 395.756C4.19412 395.713 4.38568 395.633 4.55342 395.521L8.00945 395.932C7.84171 396.045 7.65014 396.125 7.44672 396.167C7.24329 396.21 7.03237 396.214 6.82712 396.179" fill="#D0D0D0"/>
<path d="M6.82441 396.178L3.36838 395.767C3.03777 395.706 2.72669 395.578 2.45878 395.393C2.19088 395.208 1.97319 394.969 1.82227 394.696L5.27829 395.108C5.42922 395.381 5.6469 395.619 5.91481 395.805C6.18272 395.99 6.4938 396.118 6.82441 396.178" fill="#DBDBDB"/>
<path d="M5.32398 395.026L1.86796 394.614C1.66794 394.294 1.48581 393.964 1.32227 393.626L4.7783 394.038C4.86472 394.404 5.0525 394.744 5.32398 395.026" fill="#DDDDDD"/>
<path d="M4.73312 394.12L1.27709 393.708C1.09117 393.377 0.997507 393.01 1.00425 392.638L4.46027 393.05C4.49799 393.416 4.58976 393.776 4.73312 394.12" fill="#DEDEDE"/>
<path d="M4.46032 393.05L1.00429 392.638L0.731445 391.403L4.18747 391.815L4.46032 393.05Z" fill="#E0E0E0"/>
<path d="M4.18745 391.815L0.731422 391.404C0.655797 390.885 0.625385 390.362 0.640472 389.839L4.0965 390.251C4.0965 390.827 4.18745 391.321 4.18745 391.815Z" fill="#E1E1E1"/>
<path d="M6.55233 397.579L3.09631 397.167C2.71647 397.084 2.35936 396.932 2.04666 396.719C1.73397 396.507 1.47222 396.239 1.27734 395.933L4.73337 396.344C4.92825 396.651 5.18999 396.919 5.50269 397.131C5.81538 397.343 6.1725 397.496 6.55233 397.579" fill="#D0D0D0"/>
<path d="M4.82313 396.262L1.36711 395.85C1.09426 395.521 1.00331 395.191 0.730469 394.78L4.1865 395.191C4.36299 395.565 4.57605 395.923 4.82313 396.262" fill="#D1D1D1"/>
<path d="M4.18701 395.109L0.730981 394.697C0.544764 394.304 0.422237 393.888 0.367188 393.462L3.82321 393.874C3.87826 394.299 4.00079 394.715 4.18701 395.109" fill="#D2D2D2"/>
<path d="M3.8236 393.874L0.36757 393.463L0.0947266 391.981L3.55075 392.393C3.6417 392.887 3.73265 393.463 3.8236 393.874Z" fill="#D3D3D3"/>
<path d="M3.55074 392.475L0.0947118 392.063C0.0190342 391.434 -0.0113447 390.802 0.00376505 390.169L3.45979 390.581C3.53547 391.21 3.56585 391.842 3.55074 392.475" fill="#D4D4D4"/>
<path d="M9.55356 150.108L6.18848 149.697L301.315 1.59326L304.68 2.08721L9.55356 150.108Z" fill="#DCDCDC"/>
<path d="M9.55356 148.791L6.18848 148.297L301.315 0.275879L304.68 0.687506L9.55356 148.791Z" fill="#D0D0D0"/>
<path d="M7.73435 151.92L4.27832 151.508C4.55116 151.179 4.73306 150.85 4.91496 150.685L8.37098 151.097C8.18909 151.261 8.00719 151.591 7.73435 151.92Z" fill="#DEDEDE"/>
<path d="M8.46189 151.014L5.00586 150.602L5.73344 149.943L9.18947 150.355C8.92457 150.553 8.68096 150.774 8.46189 151.014Z" fill="#DDDDDD"/>
<path d="M9.18942 150.355L5.7334 149.944C5.87026 149.882 5.99355 149.798 6.09719 149.697L9.55322 150.108C9.44958 150.21 9.32629 150.294 9.18942 150.355" fill="#DBDBDB"/>
<path d="M7.1904 152.989L3.73438 152.578C3.89135 152.196 4.10557 151.836 4.37101 151.507L7.82704 151.919C7.64514 152.248 7.3723 152.578 7.1904 152.989Z" fill="#E0E0E0"/>
<path d="M7.7363 151.919L4.28027 151.507C4.55312 151.178 4.73501 150.849 4.91691 150.684L8.37294 151.096C8.19104 151.26 8.00915 151.59 7.7363 151.919Z" fill="#DEDEDE"/>
<path d="M6.55075 154.635L3.09473 154.224C3.29779 153.661 3.54082 153.111 3.82231 152.577L7.27834 152.989C6.94342 153.5 6.69798 154.056 6.55075 154.635" fill="#E1E1E1"/>
<path d="M7.18747 152.989L3.73145 152.578C3.88842 152.196 4.10264 151.836 4.36808 151.507L7.82411 151.919C7.64221 152.248 7.36937 152.578 7.18747 152.989Z" fill="#E0E0E0"/>
<path d="M5.73208 159.493L2.27605 159.082C2.26002 157.434 2.53638 155.794 3.09458 154.225L6.55061 154.636C5.99241 156.205 5.71605 157.845 5.73208 159.493Z" fill="#E3E3E3"/>
<path d="M6.55075 154.636L3.09473 154.225C3.29779 153.662 3.54082 153.112 3.82231 152.578L7.27834 152.99C6.94342 153.501 6.69798 154.057 6.55075 154.636" fill="#E1E1E1"/>
<path d="M4.09653 390.251L0.731445 389.84L2.27756 159.246L5.73359 159.658L4.09653 390.251Z" fill="#E6E6E6"/>
<path d="M5.73239 159.658L2.27637 159.246V159.082L5.73239 159.493V159.658Z" fill="#E1E1E1"/>
<path d="M5.73208 159.493L2.27605 159.082C2.26002 157.434 2.53638 155.794 3.09458 154.225L6.55061 154.636C5.99241 156.205 5.71605 157.845 5.73208 159.493Z" fill="#E3E3E3"/>
<path d="M5.73208 159.493L2.27605 159.082C2.26002 157.434 2.53638 155.794 3.09458 154.225L6.55061 154.636C5.99241 156.205 5.71605 157.845 5.73208 159.493Z" fill="#E3E3E3"/>
<path d="M5.73208 159.493L2.27605 159.082C2.26002 157.434 2.53638 155.794 3.09458 154.225L6.55061 154.636C5.99241 156.205 5.71605 157.845 5.73208 159.493Z" fill="#E3E3E3"/>
<path d="M3.55075 390.58L0.0947266 390.086L1.64084 159.575L5.00592 159.987L3.55075 390.58Z" fill="#D7D7D7"/>
<path d="M304.68 0.687675C307.227 -0.547207 309.136 2.49884 309.136 7.35604L307.499 237.867C307.499 242.807 305.408 247.829 302.952 249.064L7.91641 397.249C5.36987 398.484 3.45996 395.438 3.45996 390.581L5.09703 160.07C5.09703 155.13 7.18883 150.108 9.64443 148.873L304.68 0.687675ZM306.863 238.361L308.5 7.84999C308.5 3.65139 306.863 1.0993 304.68 2.16953L9.55348 150.108C7.46168 151.179 5.64271 155.46 5.64271 159.658L4.00565 390.169C4.00565 394.368 5.64271 396.92 7.82547 395.85L302.952 247.936C305.135 246.865 306.863 242.585 306.863 238.386" fill="#E5E5E5"/>
<path d="M200.963 401C253.982 401 296.963 378.564 296.963 350.889C296.963 323.213 253.982 300.777 200.963 300.777C147.943 300.777 104.963 323.213 104.963 350.889C104.963 378.564 147.943 401 200.963 401Z" fill="#F5F5F5"/>
<path d="M304.68 2.0872C306.772 1.01697 308.5 3.56906 308.5 7.76766L306.863 238.279C306.863 242.478 305.135 246.758 302.952 247.829L7.9165 395.932C5.82469 397.002 4.09668 394.45 4.09668 390.252L5.73374 159.74C5.73374 155.542 7.46176 151.261 9.64451 150.191L304.68 2.0872Z" fill="#FBFBFB"/>
<path d="M5.00681 159.987L1.55078 159.575V159.328L5.00681 159.74V159.987Z" fill="#D4D4D4"/>
<path d="M5.00694 159.74L1.55091 159.328C1.54322 157.398 1.88108 155.48 2.55134 153.647L6.00737 154.059C5.40218 155.905 5.06586 157.815 5.00694 159.74" fill="#D5D5D5"/>
<path d="M6.00876 154.084L2.55273 153.672C2.82558 153.014 3.00747 152.355 3.28032 151.779L6.73634 152.19C6.4635 152.767 6.2816 153.425 6.00876 154.084Z" fill="#D4D4D4"/>
<path d="M6.82517 152.166L3.36914 151.754C3.64198 151.26 3.82388 150.849 4.09673 150.437L7.55275 150.849C7.25659 151.262 7.01253 151.704 6.82517 152.166Z" fill="#D3D3D3"/>
<path d="M7.46286 150.849L4.00684 150.437C4.26954 150.092 4.51239 149.735 4.73442 149.367L8.19045 149.778C8.00232 150.163 7.75757 150.523 7.46286 150.849" fill="#D2D2D2"/>
<path d="M8.1904 149.86L4.73438 149.449C4.99004 149.134 5.29665 148.857 5.64386 148.625L9.09989 149.037L8.1904 149.86Z" fill="#D1D1D1"/>
<path d="M9.09958 149.037L5.64355 148.626C5.82545 148.544 5.9164 148.379 6.0983 148.379L9.55432 148.791C9.41558 148.891 9.26265 148.974 9.09958 149.037" fill="#D0D0D0"/>
<path d="M301.442 397.524C329.012 397.524 351.362 385.853 351.362 371.455C351.362 357.057 329.012 345.385 301.442 345.385C273.872 345.385 251.522 357.057 251.522 371.455C251.522 385.853 273.872 397.524 301.442 397.524Z" fill="#EEEEEE"/>
<path d="M325.512 366.115C325.512 366.115 327.595 368.844 326.389 370.68C325.895 371.434 325.221 372.078 324.416 372.566C323.399 373.237 322.478 374.02 321.675 374.898C319.537 377.23 315.207 381.149 311.096 379.959C305.286 378.321 311.644 374.054 311.644 374.054L325.512 366.115Z" fill="#383626"/>
<path d="M318.167 359.665L318.935 366.165L314.33 372.02L311.645 374.149C311.645 374.149 313.344 378.173 318.606 373.012C322.498 369.187 325.458 366.165 325.458 366.165V359.665H318.167Z" fill="#FFBDA7"/>
<path d="M300.571 361.253C300.571 361.253 302.435 364.081 301.119 365.867C300.581 366.596 299.869 367.206 299.036 367.654C297.972 368.251 296.996 368.968 296.131 369.787C293.829 371.97 289.225 375.593 285.223 374.149C279.577 372.114 286.21 368.299 286.21 368.299L300.571 361.253Z" fill="#383626"/>
<path d="M293.775 354.306L294.049 360.806L289.006 366.363L286.155 368.298C286.155 368.298 287.526 372.416 293.172 367.603C297.392 364.031 300.572 361.203 300.572 361.203L301.065 354.752L293.775 354.306Z" fill="#FFBDA7"/>
<path d="M295.858 277.597L291.363 318.184V318.631L293.172 357.179C293.172 357.179 296.79 359.313 302.162 357.179C302.162 357.179 305.999 332.866 304.026 322.893C303.86 322.132 303.917 321.346 304.19 320.611C306.054 315.202 313.837 292.328 314.44 285.183L295.858 277.597Z" fill="#455A64"/>
<path d="M310.439 292.581L298.653 285.685C298.653 285.685 299.256 290.398 305.176 294.616L307.698 309.893C309.178 305.284 310.822 300.019 312.138 295.405L310.439 292.581Z" fill="#37474F"/>
<path d="M297.612 277.597C297.831 277.746 294.488 289.505 306.931 292.929L310.768 323.741L317.565 362.096C317.565 362.096 322.553 363.783 325.842 360.856C325.842 360.856 327.98 335.402 323.759 323.444C323.421 322.5 323.328 321.498 323.485 320.516C324.581 313.917 328.528 288.116 323.101 278.887L297.612 277.597Z" fill="#455A64"/>
<path d="M323.649 225.944L330.336 251.994C330.755 253.667 330.523 255.42 329.678 256.955V256.955C328.7 258.676 327.01 259.976 324.976 260.571C322.942 261.166 320.73 261.008 318.825 260.131C318.661 260.081 318.551 259.982 318.386 259.932L303.367 251.894V225.895H323.649V225.944Z" fill="#F2EFD5"/>
<path d="M304.19 246.486C302.679 246.367 301.16 246.601 299.777 247.166C298.395 247.73 297.197 248.607 296.296 249.712C293.83 252.639 284.292 263.853 284.292 263.853C284.292 263.853 270.259 257.502 269.601 256.757C268.944 256.013 269.327 254.475 269.492 253.631C269.666 252.546 269.903 251.469 270.204 250.406C270.588 249.513 269.053 249.761 268.176 250.605C267.299 251.448 266.915 253.135 266.477 253.433C266.038 253.731 262.695 250.257 261.105 248.57C259.515 246.883 258.748 245.742 257.652 246.437C256.884 246.933 257.378 247.925 258.529 249.364C259.071 249.96 259.565 250.59 260.009 251.25C260.118 251.498 259.735 251.696 259.57 251.845C259.241 252.093 258.693 252.54 258.638 252.887C258.647 253.103 258.629 253.32 258.584 253.532C258.419 254.028 257.816 254.227 257.597 254.723C257.551 255.069 257.533 255.417 257.542 255.765C257.487 256.013 257.378 256.212 257.323 256.41C257.306 256.641 257.346 256.872 257.441 257.087C257.536 257.301 257.683 257.494 257.871 257.651C259.022 258.891 260.557 259.338 262.037 260.082C263.298 260.727 264.558 260.975 265.984 261.521C267.409 262.067 283.908 272.486 286.594 271.196C289.28 269.906 303.97 256.162 303.97 256.162C307.796 250.406 304.19 246.486 304.19 246.486Z" fill="#E9A5A5"/>
<path d="M302.71 245.494C302.71 245.494 299.257 245.097 295.036 249.662C290.815 254.227 288.732 256.559 288.732 256.559C290.773 258.788 293.22 260.685 295.968 262.166L302.71 245.494Z" fill="#BA68C8"/>
<path d="M302.71 245.494C302.71 245.494 299.257 245.097 295.036 249.662C290.815 254.227 288.732 256.559 288.732 256.559C290.773 258.788 293.22 260.685 295.968 262.166L302.71 245.494Z" fill="#AEA0E1"/>
<path d="M302.71 245.494L317.071 246.382C317.911 246.43 318.731 246.628 319.486 246.964C320.24 247.3 320.914 247.767 321.469 248.339C322.024 248.911 322.449 249.576 322.72 250.297C322.99 251.018 323.101 251.78 323.046 252.539C322.699 258.682 321.313 264.74 318.935 270.501C318.935 270.501 322.388 275.165 323.156 278.986C323.156 278.986 319.319 282.256 309.123 282.256C298.928 282.256 295.913 277.641 295.913 277.641L297.338 265.837C295.406 263.063 294.72 259.726 295.419 256.509C296.625 251.249 302.71 245.494 302.71 245.494Z" fill="#A492E8"/>
<path d="M319.374 220.333C319.374 220.333 320.251 217.311 320.854 217.355C321.457 217.4 321.402 220.084 321.402 220.084C321.402 220.084 324.198 219.836 323.924 220.581C323.65 221.325 320.361 222.069 320.361 222.069L319.374 220.333Z" fill="#F2EFD5"/>
<path d="M323.758 230.906C322.497 239.49 314.494 239.49 314.494 239.49L297.721 232.806C296.774 231.898 296.195 230.726 296.076 229.482C295.912 228.545 295.912 227.591 296.076 226.654V226.654C296.625 223.032 299.585 219.162 306.108 217.971C307.534 217.713 308.984 217.58 310.438 217.574C311.151 217.574 311.808 217.618 312.521 217.673C317.564 218.12 321.127 220.253 322.826 223.578C323.207 224.321 323.483 225.104 323.648 225.91C323.984 227.559 324.021 229.246 323.758 230.906Z" fill="#F2EFD5"/>
<path d="M314.495 246.183L306.383 251.939V233.68H314.495V246.183Z" fill="#FFBDA7"/>
<path d="M306.383 243.361C308.187 242.751 309.836 241.817 311.231 240.614C312.625 239.412 313.736 237.966 314.495 236.364V233.685H306.383V243.361Z" fill="#F0997A"/>
<path d="M308.136 220.139C305.067 220.139 298.489 221.677 297.721 229.021C296.954 236.364 297.721 241.971 301.833 242.517C305.944 243.063 315.646 240.334 316.961 230.906C318.277 221.479 311.151 220.139 308.136 220.139Z" fill="#FFBDA7"/>
<path d="M303.257 232.092V236.409L300.462 235.62L303.257 232.092Z" fill="#F0997A"/>
<path d="M306.383 233.734C306.928 233.734 307.37 233.335 307.37 232.841C307.37 232.348 306.928 231.948 306.383 231.948C305.838 231.948 305.396 232.348 305.396 232.841C305.396 233.335 305.838 233.734 306.383 233.734Z" fill="#383626"/>
<path d="M300.955 232.241C300.956 232.418 300.899 232.591 300.791 232.738C300.683 232.886 300.53 233.001 300.349 233.069C300.169 233.138 299.971 233.156 299.779 233.122C299.587 233.088 299.411 233.004 299.272 232.879C299.134 232.754 299.039 232.595 299.001 232.422C298.962 232.248 298.982 232.069 299.056 231.905C299.131 231.742 299.257 231.602 299.419 231.503C299.582 231.405 299.773 231.353 299.968 231.353V231.353C300.098 231.351 300.226 231.373 300.346 231.417C300.466 231.462 300.575 231.527 300.667 231.609C300.759 231.692 300.832 231.791 300.881 231.899C300.93 232.007 300.955 232.124 300.955 232.241V232.241Z" fill="#383626"/>
<path d="M298.818 230.41L300.736 229.417C300.736 229.417 300.024 228.723 299.311 229.169C299.08 229.29 298.904 229.481 298.814 229.708C298.724 229.935 298.725 230.183 298.818 230.41Z" fill="#383626"/>
<path d="M301.943 238.151C302.876 238.213 303.804 237.985 304.574 237.506C304.574 237.506 304.739 238.746 303.588 238.994C303.249 239.044 302.901 238.987 302.602 238.834C302.303 238.68 302.071 238.44 301.943 238.151Z" fill="#F0997A"/>
<path d="M300.298 222.62C300.298 222.62 301.449 232.693 316.578 232.99C316.578 232.99 321.127 222.968 312.138 219.742C303.148 216.517 300.298 222.62 300.298 222.62Z" fill="#F2EFD5"/>
<path d="M314.057 233.387C313.07 234.925 313.345 236.761 314.715 237.406C315.592 237.803 318.168 236.91 319.155 235.421C320.142 233.933 319.593 232.593 318.278 231.899C316.962 231.204 315.044 231.849 314.057 233.387Z" fill="#FFBDA7"/>
<path d="M306.383 245.742C306.383 245.742 300.901 251.944 306.383 251.944C311.864 251.944 314.495 246.238 314.495 246.238L306.383 245.742Z" fill="#FFBDA7"/>
<path d="M333.79 268.531C332.529 263.57 329.185 257.715 327.321 254.837L319.647 259.253C319.647 259.253 324.142 266.199 325.513 269.474C326.28 273.344 325.951 280.39 325.074 284.211C324.921 284.864 324.512 285.446 323.923 285.848C322.388 286.89 321.84 287.932 320.689 289.222C319.812 290.215 319.044 290.512 319.154 290.81C319.238 290.975 319.358 291.123 319.506 291.245C319.654 291.367 319.828 291.461 320.017 291.521C320.206 291.581 320.407 291.607 320.607 291.595C320.807 291.584 321.003 291.536 321.182 291.455V291.455C321.965 291.101 322.7 290.669 323.375 290.165C322.93 291.599 322.226 292.957 321.292 294.184C319.209 297.012 319.264 298.65 323.758 298.6C326.609 298.55 328.747 296.764 330.501 290.463C330.994 288.676 331.981 285.501 332.419 283.218C333.79 275.364 334.173 271.791 333.79 268.531Z" fill="#FFBDA7"/>
<path d="M317.729 246.486C317.729 246.486 312.631 251.15 322.388 264.492C322.388 264.492 328.308 264.199 331.049 260.324L327.102 252.683C326.275 250.998 324.975 249.539 323.33 248.451C321.685 247.364 319.753 246.686 317.729 246.486V246.486Z" fill="#BA68C8"/>
<path d="M317.729 246.486C317.729 246.486 312.631 251.15 322.388 264.492C322.388 264.492 328.308 264.199 331.049 260.324L327.102 252.683C326.275 250.998 324.975 249.539 323.33 248.451C321.685 247.364 319.753 246.686 317.729 246.486V246.486Z" fill="#AEA0E1"/>
<path d="M233.368 215.952L231.812 215.771C231.875 215.743 231.931 215.703 231.976 215.655L233.531 215.845C233.484 215.888 233.428 215.924 233.368 215.952Z" fill="#D0D0D0"/>
<path d="M233.531 215.828L231.976 215.638C232.096 215.553 232.205 215.456 232.303 215.35L233.849 215.531C233.773 215.653 233.663 215.755 233.531 215.828Z" fill="#D1D1D1"/>
<path d="M233.895 215.515L232.349 215.326C232.457 215.212 232.551 215.088 232.631 214.956L234.177 215.145C234.104 215.281 234.009 215.406 233.895 215.515Z" fill="#D2D2D2"/>
<path d="M234.177 215.144L232.631 214.955C232.746 214.807 232.841 214.647 232.913 214.478L234.468 214.659C234.389 214.829 234.291 214.992 234.177 215.144Z" fill="#D3D3D3"/>
<path d="M234.514 214.659L232.959 214.478C233.086 214.255 233.168 214 233.286 213.737L234.833 213.926C234.705 214.162 234.598 214.407 234.514 214.659Z" fill="#D4D4D4"/>
<path d="M234.75 213.926L233.204 213.737C233.412 213.026 233.534 212.298 233.568 211.563L235.114 211.753C235.094 212.488 234.972 213.218 234.75 213.926Z" fill="#D5D5D5"/>
<path d="M235.114 211.712L233.567 211.531V211.457L235.114 211.638V211.712Z" fill="#D4D4D4"/>
<path d="M235.114 211.671L233.604 211.49L234.305 108.13L235.815 108.344L235.114 211.671Z" fill="#D7D7D7"/>
<path d="M235.813 108.345L234.258 108.164C234.277 107.931 234.277 107.697 234.258 107.464L235.804 107.645C235.843 107.876 235.858 108.111 235.849 108.345" fill="#D4D4D4"/>
<path d="M235.813 107.612L234.258 107.423C234.258 107.242 234.176 107.019 234.14 106.871L235.686 107.06C235.746 107.24 235.789 107.425 235.813 107.612Z" fill="#D3D3D3"/>
<path d="M235.686 107.06L234.14 106.871C234.08 106.716 234.038 106.556 234.013 106.394L235.568 106.575L235.686 107.06Z" fill="#D2D2D2"/>
<path d="M235.567 106.615L234.012 106.426C233.951 106.272 233.868 106.125 233.767 105.99L235.322 106.171C235.422 106.31 235.504 106.459 235.567 106.615Z" fill="#D1D1D1"/>
<path d="M235.358 106.171L233.812 105.99C233.746 105.866 233.65 105.758 233.53 105.674C233.41 105.589 233.27 105.531 233.121 105.504L234.667 105.694C234.817 105.715 234.959 105.769 235.08 105.853C235.201 105.936 235.296 106.046 235.358 106.171Z" fill="#D0D0D0"/>
<path d="M234.143 105.801L232.597 105.62C232.75 105.523 232.939 105.482 233.124 105.505L234.67 105.694C234.487 105.681 234.303 105.718 234.143 105.801Z" fill="#DBDBDB"/>
<path d="M234.143 105.175L232.597 104.994C232.775 104.885 232.994 104.844 233.206 104.879L234.752 105.068C234.543 105.068 234.336 105.104 234.143 105.175Z" fill="#D0D0D0"/>
<path d="M101.156 282.281L99.6104 282.059L231.812 215.729L233.368 215.952L101.156 282.281Z" fill="#D0D0D0"/>
<path d="M100.674 282.397L99.1191 282.208C99.2119 282.224 99.3074 282.223 99.3997 282.205C99.492 282.187 99.5791 282.151 99.6557 282.101L101.202 282.282C101.127 282.333 101.042 282.37 100.951 282.389C100.861 282.409 100.766 282.412 100.674 282.397Z" fill="#D0D0D0"/>
<path d="M100.676 282.397L99.1209 282.207C98.9732 282.181 98.8341 282.124 98.7144 282.041C98.5946 281.958 98.4972 281.852 98.4297 281.73L99.9758 281.911C100.044 282.035 100.142 282.143 100.264 282.228C100.385 282.312 100.526 282.37 100.676 282.397Z" fill="#DBDBDB"/>
<path d="M99.9762 281.879L98.4301 281.689C98.3391 281.548 98.2571 281.403 98.1846 281.253L99.7398 281.434C99.7789 281.597 99.86 281.749 99.9762 281.879Z" fill="#DDDDDD"/>
<path d="M99.7391 281.475L98.1839 281.286C98.1023 281.137 98.0618 280.974 98.0657 280.808L99.6118 280.989C99.6267 281.156 99.6697 281.32 99.7391 281.475Z" fill="#DEDEDE"/>
<path d="M99.6119 280.989L98.0658 280.808L97.9385 280.256L99.4937 280.437L99.6119 280.989Z" fill="#E0E0E0"/>
<path d="M99.4934 280.438L97.9382 280.256C97.9203 280.023 97.9203 279.79 97.9382 279.557L99.4844 279.738C99.4844 279.993 99.4844 280.215 99.4844 280.438" fill="#E1E1E1"/>
<path d="M100.545 283.023L98.9992 282.833C98.8281 282.797 98.6671 282.73 98.5262 282.635C98.3854 282.54 98.2677 282.42 98.1807 282.282L99.7359 282.471C99.8232 282.607 99.9398 282.726 100.079 282.821C100.218 282.916 100.376 282.984 100.545 283.023Z" fill="#D0D0D0"/>
<path d="M99.7727 282.43L98.2266 282.249C98.1201 282.092 98.0229 281.93 97.9355 281.763L99.4908 281.953C99.5704 282.118 99.6647 282.278 99.7727 282.43Z" fill="#D1D1D1"/>
<path d="M99.4904 281.911L97.9352 281.73C97.8534 281.554 97.7984 281.368 97.7715 281.179L99.3267 281.36C99.3493 281.55 99.4045 281.736 99.4904 281.911Z" fill="#D2D2D2"/>
<path d="M99.3268 281.36L97.7715 281.179L97.6533 280.512L99.1994 280.693C99.2449 280.915 99.2813 281.179 99.3268 281.36Z" fill="#D3D3D3"/>
<path d="M99.1994 280.734L97.6533 280.553C97.6364 280.279 97.6364 280.004 97.6533 279.729L99.1994 279.919C99.2165 280.193 99.2165 280.468 99.1994 280.742" fill="#D4D4D4"/>
<path d="M101.894 172.131L100.384 171.941L232.631 105.579L234.141 105.801L101.894 172.131Z" fill="#DCDCDC"/>
<path d="M101.894 171.538L100.384 171.316L232.631 104.994L234.141 105.175L101.894 171.538Z" fill="#D0D0D0"/>
<path d="M101.074 172.945L99.5283 172.756C99.6556 172.608 99.7375 172.459 99.8193 172.385L101.365 172.575C101.284 172.649 101.202 172.797 101.074 172.945Z" fill="#DEDEDE"/>
<path d="M101.403 172.534L99.8564 172.353L100.184 172.056L101.73 172.237C101.612 172.328 101.502 172.427 101.403 172.534Z" fill="#DDDDDD"/>
<path d="M101.73 172.237L100.184 172.056C100.244 172.029 100.299 171.993 100.347 171.949L101.893 172.13C101.847 172.176 101.792 172.212 101.73 172.237Z" fill="#DBDBDB"/>
<path d="M100.82 173.423L99.2646 173.234C99.336 173.063 99.4341 172.902 99.5557 172.756L101.102 172.946C100.997 173.099 100.902 173.259 100.82 173.423Z" fill="#E0E0E0"/>
<path d="M101.074 172.946L99.5283 172.756C99.6556 172.608 99.7375 172.46 99.8193 172.386L101.365 172.575C101.284 172.649 101.202 172.797 101.074 172.946Z" fill="#DEDEDE"/>
<path d="M100.547 174.155L99.001 173.974C99.092 173.721 99.2013 173.474 99.3284 173.233L100.875 173.423C100.725 173.65 100.614 173.897 100.547 174.155Z" fill="#E1E1E1"/>
<path d="M100.82 173.423L99.2646 173.233C99.336 173.062 99.4341 172.902 99.5557 172.756L101.102 172.945C100.997 173.099 100.902 173.258 100.82 173.423Z" fill="#E0E0E0"/>
<path d="M100.184 176.312L98.6381 176.123C98.6298 175.386 98.7526 174.652 99.0019 173.95L100.548 174.131C100.299 174.836 100.176 175.572 100.184 176.312Z" fill="#E3E3E3"/>
<path d="M100.548 174.155L99.002 173.974C99.0929 173.721 99.2023 173.474 99.3294 173.233L100.875 173.423C100.725 173.65 100.615 173.897 100.548 174.155Z" fill="#E1E1E1"/>
<path d="M99.4472 279.738L97.9375 279.548L98.6378 176.222L100.184 176.411L99.4472 279.738Z" fill="#E6E6E6"/>
<path d="M100.184 176.41L98.6377 176.221V176.147L100.184 176.336V176.41Z" fill="#E1E1E1"/>
<path d="M100.184 176.311L98.6381 176.122C98.6298 175.385 98.7526 174.651 99.0019 173.949L100.548 174.13C100.299 174.835 100.176 175.571 100.184 176.311Z" fill="#E3E3E3"/>
<path d="M100.184 176.311L98.6381 176.122C98.6298 175.385 98.7526 174.651 99.0019 173.949L100.548 174.13C100.299 174.835 100.176 175.571 100.184 176.311Z" fill="#E3E3E3"/>
<path d="M100.184 176.311L98.6381 176.122C98.6298 175.385 98.7526 174.651 99.0019 173.949L100.548 174.13C100.299 174.835 100.176 175.571 100.184 176.311Z" fill="#E3E3E3"/>
<path d="M99.2004 279.886L97.6543 279.663L98.3455 176.37L99.8552 176.559L99.2004 279.886Z" fill="#D7D7D7"/>
<path d="M234.141 105.175C235.278 104.624 236.133 105.998 236.133 108.164L235.423 211.457C235.423 213.672 234.514 215.919 233.386 216.471L101.157 282.875C100.02 283.426 99.165 282.051 99.165 279.886L99.8926 176.593C99.8926 174.378 100.802 172.131 101.939 171.579L234.141 105.175ZM235.114 211.713L235.851 108.419C235.851 106.534 235.114 105.389 234.141 105.875L101.893 172.131C100.984 172.608 100.138 174.526 100.138 176.411L99.4106 279.697C99.4106 281.582 100.138 282.727 101.12 282.249L233.368 215.952C234.341 215.475 235.114 213.557 235.114 211.68" fill="#E5E5E5"/>
<path d="M234.14 105.8C235.05 105.323 235.85 106.467 235.85 108.344L235.114 211.638C235.114 213.523 234.34 215.441 233.367 215.919L101.156 282.281C100.247 282.759 99.4463 281.615 99.4463 279.738L100.183 176.444C100.183 174.567 100.956 172.649 101.938 172.163L234.14 105.8Z" fill="#FBFBFB"/>
<path d="M99.8557 176.559L98.3096 176.37V176.263L99.8557 176.444V176.559Z" fill="#D4D4D4"/>
<path d="M99.8557 176.444L98.3096 176.263C98.3061 175.398 98.4566 174.539 98.7553 173.719L100.301 173.9C100.031 174.727 99.881 175.582 99.8557 176.444Z" fill="#D5D5D5"/>
<path d="M100.302 173.9L98.7559 173.719C98.8741 173.422 98.9559 173.126 99.0833 172.896L100.629 173.077C100.511 173.332 100.429 173.628 100.302 173.9Z" fill="#D4D4D4"/>
<path d="M100.673 173.019L99.1182 172.838C99.2455 172.616 99.3273 172.426 99.4456 172.245L100.992 172.426C100.864 172.614 100.757 172.812 100.673 173.019Z" fill="#D3D3D3"/>
<path d="M100.956 172.459L99.4102 172.278C99.5284 172.13 99.6102 171.981 99.7376 171.8L101.284 171.981C101.196 172.152 101.086 172.312 100.956 172.459Z" fill="#D2D2D2"/>
<path d="M101.283 172.023L99.7373 171.833C99.8494 171.692 99.9843 171.567 100.137 171.463L101.693 171.652L101.283 172.023Z" fill="#D1D1D1"/>
<path d="M101.729 171.652L100.174 171.463C100.256 171.463 100.301 171.356 100.383 171.356L101.929 171.537C101.869 171.585 101.802 171.624 101.729 171.652Z" fill="#D0D0D0"/>
<path d="M71.353 228.375C72.5354 227.798 73.5358 229.198 73.5358 231.668L73.4448 245.251C73.4448 247.639 72.4444 250.109 71.2621 250.685L55.8009 258.423C54.6186 259 53.6182 257.6 53.6182 255.13L53.7091 241.547C53.7091 239.159 54.7095 236.69 55.8919 236.113L71.353 228.375Z" fill="#9E8CDE"/>
<path d="M64.5317 274.551C65.5321 274.057 66.3506 274.716 66.3506 276.115V277.68L62.6217 279.573V278.009C62.6093 277.336 62.7764 276.67 63.1089 276.068C63.4414 275.466 63.9294 274.946 64.5317 274.551Z" fill="#9E8CDE"/>
<path d="M72.9898 265.224C74.1722 264.647 75.1726 266.047 75.1726 268.517L75.0816 283.418C75.0816 285.805 74.0812 288.275 72.8989 288.851L55.9826 297.331C54.8002 297.907 53.7998 296.507 53.7998 294.038L53.8908 279.137C53.8908 276.749 54.8912 274.28 56.0735 273.703L72.9898 265.224Z" fill="#9E8CDE"/>
<path d="M104.186 259.321L79.084 272.164" stroke="#263238" stroke-width="2" stroke-miterlimit="10"/>
<path d="M105.005 261.05C105.537 260.753 105.981 260.342 106.298 259.854C106.615 259.367 106.795 258.816 106.823 258.251C106.823 257.263 106.005 256.769 105.005 257.345C104.472 257.642 104.028 258.053 103.711 258.54C103.394 259.028 103.214 259.579 103.186 260.144C103.186 261.107 104.004 261.544 105.005 261.05Z" fill="#455A64"/>
<path d="M78.5377 274.798C79.0698 274.501 79.5137 274.091 79.8307 273.603C80.1477 273.115 80.3283 272.565 80.3567 271.999C80.3567 271.011 79.5381 270.517 78.5377 271.094C78.0056 271.391 77.5617 271.801 77.2447 272.289C76.9277 272.777 76.7471 273.327 76.7188 273.893C76.7188 274.881 77.5373 275.292 78.5377 274.798Z" fill="#455A64"/>
<path d="M104.186 223.781L79.084 236.624" stroke="#263238" stroke-width="2" stroke-miterlimit="10"/>
<path d="M105.005 224.835C105.537 224.538 105.981 224.127 106.298 223.64C106.615 223.152 106.795 222.601 106.823 222.036C106.823 221.048 106.005 220.554 105.005 221.13C104.472 221.427 104.028 221.838 103.711 222.325C103.394 222.813 103.214 223.364 103.186 223.929C103.186 224.884 104.004 225.329 105.005 224.835Z" fill="#455A64"/>
<path d="M78.5377 238.583C79.0698 238.286 79.5137 237.876 79.8307 237.388C80.1477 236.9 80.3283 236.35 80.3567 235.784C80.3567 234.796 79.5381 234.302 78.5377 234.879C78.0056 235.176 77.5617 235.586 77.2447 236.074C76.9277 236.562 76.7471 237.112 76.7188 237.678C76.7188 238.666 77.5373 239.077 78.5377 238.583Z" fill="#455A64"/>
<path d="M284.143 122.949C285.325 122.373 286.326 123.772 286.326 126.242L286.235 139.826C286.235 142.213 285.234 144.683 284.052 145.259L268.591 152.998C267.409 153.574 266.408 152.174 266.408 149.705L266.499 136.121C266.499 133.733 267.5 131.264 268.682 130.687L284.143 122.949Z" fill="#9E8CDE"/>
<path d="M260.588 146.478L235.486 159.32" stroke="#263238" stroke-width="2" stroke-miterlimit="10"/>
<path d="M261.406 147.498C261.938 147.201 262.382 146.791 262.699 146.303C263.016 145.815 263.196 145.265 263.225 144.699C263.225 143.711 262.406 143.217 261.406 143.794C260.874 144.091 260.43 144.501 260.113 144.989C259.796 145.477 259.615 146.027 259.587 146.593C259.587 147.605 260.405 148.017 261.406 147.498Z" fill="#455A64"/>
<path d="M234.941 161.271C235.473 160.974 235.917 160.564 236.234 160.076C236.551 159.588 236.732 159.038 236.76 158.472C236.76 157.484 235.941 156.99 234.941 157.567C234.409 157.864 233.965 158.274 233.648 158.762C233.331 159.25 233.15 159.8 233.122 160.366C233.122 161.354 233.941 161.765 234.941 161.271Z" fill="#455A64"/>
<path d="M65.0876 237.579L65.0694 247.738L63.3778 248.117L63.396 240.353L61.377 241.555V239.917L64.9148 237.62L65.0876 237.579Z" fill="white"/>
<path d="M64.6321 274.584C65.2384 274.255 65.6932 274.304 65.9963 274.733C66.3881 275.455 66.5608 276.259 66.4966 277.062C66.4883 277.733 66.4183 278.402 66.2874 279.063C66.0933 279.952 65.8474 280.832 65.5507 281.697L64.2774 285.402L66.7148 284.027V286.011L62.8314 288.209V286.513L64.6503 281.203C64.8959 280.462 65.0778 279.829 65.196 279.31C65.308 278.858 65.3689 278.398 65.3779 277.935C65.3972 277.529 65.3293 277.124 65.1778 276.741C65.0505 276.503 64.8595 276.445 64.6321 276.577C64.3173 276.81 64.1045 277.137 64.0319 277.499C63.8737 278.035 63.8032 278.59 63.8227 279.145L62.6949 279.779C62.6866 279.038 62.7659 278.299 62.9314 277.573C63.0633 276.927 63.2928 276.301 63.6135 275.712C63.8345 275.26 64.1864 274.87 64.6321 274.584Z" fill="white"/>
<path d="M277.087 131.141C277.687 130.803 278.16 130.853 278.496 131.289C278.913 131.996 279.096 132.796 279.024 133.594C279.025 134.168 278.948 134.741 278.797 135.298C278.664 135.804 278.456 136.292 278.178 136.747C278.356 136.8 278.516 136.894 278.642 137.019C278.768 137.145 278.856 137.298 278.897 137.463C279.081 137.996 279.164 138.552 279.142 139.11C279.166 140.119 278.984 141.124 278.606 142.074C278.357 142.805 277.849 143.442 277.159 143.885C277.06 143.968 276.94 144.03 276.81 144.066C276.681 144.102 276.543 144.111 276.409 144.093C276.275 144.075 276.147 144.03 276.034 143.961C275.922 143.892 275.828 143.801 275.759 143.695C275.328 142.999 275.138 142.202 275.213 141.407L276.332 140.773C276.305 141.122 276.39 141.471 276.577 141.777C276.604 141.824 276.641 141.864 276.687 141.896C276.733 141.928 276.786 141.95 276.843 141.961C276.899 141.972 276.958 141.972 277.014 141.96C277.071 141.948 277.123 141.925 277.169 141.892C277.475 141.69 277.696 141.4 277.796 141.069C277.954 140.631 278.028 140.172 278.014 139.711C278.014 138.476 277.696 138.064 277.105 138.377L276.505 138.715V136.797L277.105 136.459C277.418 136.263 277.641 135.97 277.732 135.636C277.88 135.196 277.948 134.737 277.933 134.277C277.961 133.916 277.889 133.554 277.723 133.224C277.698 133.179 277.662 133.14 277.618 133.11C277.574 133.08 277.522 133.059 277.468 133.049C277.414 133.04 277.358 133.042 277.304 133.055C277.251 133.068 277.201 133.092 277.159 133.125C276.904 133.298 276.716 133.54 276.623 133.816C276.472 134.179 276.398 134.565 276.405 134.952L275.286 135.586C275.278 134.955 275.354 134.324 275.513 133.709C275.653 133.157 275.876 132.625 276.177 132.129C276.387 131.737 276.699 131.398 277.087 131.141Z" fill="white"/>
<path d="M116.182 179.737C116.332 179.629 116.512 179.559 116.702 179.534C116.892 179.51 117.086 179.531 117.264 179.597C117.637 179.812 117.904 180.148 118.01 180.536C118.209 181.136 118.301 181.761 118.283 182.388L117.119 183.047C117.15 182.638 117.062 182.229 116.864 181.861C116.7 181.639 116.473 181.614 116.173 181.779C115.864 181.961 115.631 182.23 115.509 182.544C115.348 182.922 115.268 183.325 115.272 183.73C115.252 184.028 115.356 184.321 115.563 184.553C115.788 184.738 116.078 184.843 116.382 184.849C116.682 184.866 116.973 184.95 117.229 185.094C117.484 185.238 117.696 185.437 117.846 185.673C118.197 186.348 118.357 187.092 118.31 187.838C118.339 188.808 118.153 189.774 117.764 190.678C117.49 191.395 116.967 192.013 116.273 192.44C116.106 192.556 115.908 192.631 115.699 192.657C115.49 192.683 115.277 192.66 115.081 192.588C114.876 192.488 114.695 192.35 114.553 192.183C114.41 192.015 114.308 191.822 114.254 191.617C114.04 190.985 113.942 190.326 113.963 189.665L115.136 189.007C115.136 190.373 115.518 190.843 116.264 190.423C116.559 190.243 116.785 189.984 116.909 189.682C117.076 189.311 117.153 188.913 117.137 188.513C117.18 188.174 117.096 187.832 116.9 187.541C116.674 187.337 116.373 187.214 116.055 187.196C115.713 187.156 115.385 187.052 115.09 186.891C114.445 186.496 114.117 185.648 114.108 184.355C114.105 183.704 114.191 183.054 114.363 182.421C114.51 181.841 114.756 181.286 115.09 180.774C115.359 180.356 115.733 180 116.182 179.737Z" fill="#455A64"/>
<path d="M120.074 177.021V181.894C120.2 181.188 120.596 180.544 121.193 180.075C122.102 179.564 122.569 180.464 122.593 182.775V188.678L121.466 189.312V183.483C121.484 183.115 121.428 182.747 121.302 182.396C121.193 182.199 121.02 182.182 120.784 182.314C120.579 182.468 120.411 182.657 120.29 182.87C120.168 183.084 120.094 183.318 120.074 183.557V190.094L118.956 190.736L118.883 177.654L120.074 177.021Z" fill="#455A64"/>
<path d="M126.894 184.141C126.879 184.777 126.94 185.412 127.076 186.035V186.191L125.939 186.833C125.877 186.584 125.837 186.331 125.821 186.076C125.684 186.701 125.311 187.262 124.766 187.665C124.688 187.724 124.596 187.766 124.498 187.788C124.399 187.81 124.296 187.811 124.196 187.791C124.097 187.771 124.004 187.731 123.925 187.673C123.845 187.616 123.782 187.543 123.739 187.459C123.418 186.928 123.273 186.325 123.32 185.722C123.291 184.856 123.455 183.994 123.802 183.186C124.083 182.532 124.582 181.974 125.23 181.589L125.748 181.293V180.766C125.764 180.447 125.712 180.128 125.594 179.828C125.494 179.63 125.33 179.597 125.121 179.721C124.908 179.851 124.751 180.042 124.675 180.264C124.56 180.557 124.504 180.867 124.512 181.178L123.393 181.812C123.382 181.256 123.455 180.702 123.611 180.165C123.742 179.663 123.954 179.18 124.239 178.733C124.462 178.372 124.773 178.063 125.148 177.827C125.236 177.754 125.341 177.699 125.455 177.667C125.569 177.635 125.689 177.626 125.807 177.641C125.926 177.656 126.039 177.695 126.139 177.754C126.238 177.813 126.323 177.891 126.385 177.983C126.761 178.646 126.924 179.39 126.858 180.132L126.894 184.141ZM125.767 184.298V182.717L125.348 182.956C125.041 183.159 124.796 183.429 124.637 183.742C124.477 184.055 124.409 184.399 124.439 184.742V184.882C124.419 185.118 124.469 185.354 124.584 185.566C124.684 185.714 124.821 185.73 124.994 185.632C125.189 185.501 125.346 185.329 125.448 185.129C125.595 184.87 125.699 184.593 125.758 184.306" fill="#455A64"/>
<path d="M129.751 175.25C129.854 175.183 129.981 175.154 130.106 175.168V177.539C129.965 177.577 129.83 177.633 129.706 177.704C129.464 177.87 129.265 178.083 129.122 178.326C128.979 178.569 128.896 178.837 128.878 179.111V185.146L127.76 185.78L127.705 176.568L128.769 175.967V177.045C128.836 176.356 129.186 175.716 129.751 175.25Z" fill="#455A64"/>
<path d="M134.245 177.292V178.305L131.562 179.82C131.566 180.257 131.681 180.688 131.898 181.079C131.927 181.136 131.97 181.187 132.024 181.226C132.078 181.266 132.141 181.294 132.208 181.309C132.276 181.323 132.346 181.323 132.414 181.309C132.482 181.295 132.545 181.267 132.599 181.227C133.139 180.824 133.498 180.256 133.608 179.63L134.172 180.668C134.025 181.241 133.796 181.795 133.49 182.314C133.262 182.702 132.935 183.036 132.535 183.285C132.415 183.374 132.273 183.435 132.122 183.464C131.97 183.492 131.813 183.487 131.664 183.449C131.516 183.411 131.379 183.341 131.266 183.246C131.153 183.15 131.067 183.031 131.016 182.899C130.551 181.964 130.348 180.941 130.425 179.918V179.606C130.418 178.728 130.497 177.852 130.661 176.988C130.78 176.271 131.01 175.572 131.344 174.913C131.557 174.441 131.913 174.033 132.371 173.736C132.944 173.415 133.399 173.555 133.735 174.164C134.14 175.164 134.313 176.229 134.245 177.292ZM133.135 177.251V177.053C133.165 176.657 133.093 176.26 132.926 175.893C132.91 175.844 132.88 175.799 132.84 175.763C132.8 175.727 132.75 175.701 132.696 175.687C132.641 175.673 132.584 175.672 132.529 175.684C132.474 175.695 132.423 175.719 132.38 175.753C132.096 175.96 131.903 176.252 131.835 176.576C131.679 177.089 131.59 177.617 131.571 178.148L133.135 177.267" fill="#455A64"/>
<path d="M203.164 183.614L201.654 183.277C202.764 182.717 203.664 180.906 203.655 179.243L205.156 179.58C205.156 181.227 204.246 183.054 203.164 183.614Z" fill="#D9D9D9"/>
<path d="M205.166 179.58L203.656 179.243L203.583 166.877L205.093 167.223L205.166 179.58Z" fill="#D9D9D9"/>
<path d="M205.094 167.257L203.584 166.919C203.584 165.725 203.111 164.927 202.438 164.771L203.948 165.116C204.621 165.264 205.085 166.063 205.094 167.257Z" fill="#D9D9D9"/>
<path d="M203.064 165.223L201.555 164.886C201.688 164.807 201.837 164.754 201.993 164.728C202.149 164.703 202.309 164.706 202.464 164.737L203.974 165.083C203.82 165.048 203.659 165.043 203.503 165.067C203.346 165.091 203.197 165.144 203.064 165.223Z" fill="#E4E4E4"/>
<path d="M203.064 164.457L201.555 164.12C201.721 164.026 201.907 163.964 202.101 163.937C202.295 163.91 202.493 163.919 202.682 163.963L204.192 164.301C203.814 164.228 203.42 164.29 203.092 164.473" fill="#D9D9D9"/>
<path d="M114.8 228.268L113.29 227.93L201.655 183.277L203.165 183.614L114.8 228.268Z" fill="#D9D9D9"/>
<path d="M113.918 228.416L112.408 228.07C112.562 228.105 112.723 228.111 112.879 228.087C113.036 228.063 113.185 228.009 113.318 227.93L114.827 228.268C114.694 228.346 114.545 228.399 114.389 228.425C114.233 228.45 114.073 228.447 113.918 228.416Z" fill="#D9D9D9"/>
<path d="M113.919 228.416L112.41 228.071C111.737 227.923 111.273 227.124 111.264 225.938L112.773 226.276C112.773 227.462 113.246 228.26 113.919 228.416Z" fill="#E4E4E4"/>
<path d="M113.699 229.214L112.189 228.868C111.343 228.679 110.761 227.683 110.752 226.193L112.262 226.53C112.262 228.02 112.853 229 113.699 229.214Z" fill="#D9D9D9"/>
<path d="M114.699 209.876L113.189 209.539L201.555 164.885L203.064 165.223L114.699 209.876Z" fill="#E3E3E3"/>
<path d="M114.69 209.111L113.189 208.773L201.555 164.12L203.064 164.458L114.69 209.111Z" fill="#D9D9D9"/>
<path d="M112.772 226.276L111.262 225.93L111.189 213.573L112.699 213.91L112.772 226.276Z" fill="#E3E3E3"/>
<path d="M112.262 226.531L110.752 226.193L110.68 213.828L112.189 214.166L112.262 226.531Z" fill="#D9D9D9"/>
<path d="M112.699 213.91L111.189 213.573C111.189 211.926 112.099 210.098 113.19 209.539L114.7 209.876C113.59 210.436 112.69 212.247 112.699 213.91Z" fill="#E4E4E4"/>
<path d="M203.065 164.457C204.447 163.757 205.593 164.885 205.602 166.927L205.666 179.275C205.666 181.358 204.556 183.622 203.174 184.33L114.8 229C113.408 229.708 112.271 228.58 112.262 226.53L112.189 214.181C112.189 212.107 113.299 209.835 114.691 209.127L203.065 164.457ZM205.157 179.58L205.093 167.231C205.093 165.585 204.183 164.671 203.065 165.231L114.7 209.884C113.59 210.444 112.69 212.255 112.699 213.918L112.772 226.267C112.772 227.913 113.681 228.827 114.8 228.259L203.165 183.606C204.274 183.046 205.166 181.235 205.157 179.572" fill="#E7E7E7"/>
<path d="M203.064 165.223C204.174 164.663 205.083 165.561 205.092 167.224L205.156 179.573C205.156 181.219 204.247 183.047 203.164 183.606L114.799 228.26C113.69 228.828 112.78 227.931 112.771 226.268L112.698 213.919C112.698 212.272 113.608 210.445 114.699 209.885L203.064 165.223Z" fill="#FBFBFB"/>
<path d="M112.191 214.181L110.682 213.844C110.682 211.761 111.8 209.497 113.192 208.789L114.692 209.127C113.301 209.835 112.182 212.107 112.191 214.181Z" fill="#D9D9D9"/>
<path d="M226.983 172.196L225.482 171.859C226.583 171.299 227.483 169.488 227.474 167.825L228.984 168.162C228.984 169.809 228.074 171.636 226.983 172.196Z" fill="#D9D9D9"/>
<path d="M228.985 168.137L227.475 167.8L227.402 155.443L228.912 155.78L228.985 168.137Z" fill="#D9D9D9"/>
<path d="M228.911 155.78L227.401 155.443C227.401 154.249 226.928 153.45 226.255 153.302L227.765 153.64C228.438 153.788 228.901 154.587 228.911 155.78Z" fill="#D9D9D9"/>
<path d="M226.885 153.781L225.375 153.443C225.509 153.366 225.658 153.314 225.814 153.29C225.97 153.266 226.13 153.271 226.284 153.303L227.794 153.641C227.482 153.578 227.156 153.629 226.885 153.781Z" fill="#E4E4E4"/>
<path d="M226.885 153.014L225.375 152.677C225.704 152.493 226.098 152.431 226.475 152.504L227.985 152.841C227.607 152.769 227.213 152.831 226.885 153.014Z" fill="#D9D9D9"/>
<path d="M215.497 177.984L213.987 177.646L225.474 171.834L226.984 172.172L215.497 177.984Z" fill="#D9D9D9"/>
<path d="M214.614 178.123L213.104 177.786C213.416 177.848 213.742 177.798 214.014 177.646L215.524 177.984C215.252 178.135 214.926 178.186 214.614 178.123Z" fill="#D9D9D9"/>
<path d="M214.616 178.123L213.106 177.786C212.433 177.63 211.969 176.831 211.96 175.646L213.47 175.983C213.47 177.177 213.943 177.975 214.616 178.123Z" fill="#E4E4E4"/>
<path d="M214.4 178.923L212.89 178.585C212.044 178.396 211.462 177.391 211.453 175.901L212.963 176.239C212.963 177.729 213.554 178.709 214.4 178.923Z" fill="#D9D9D9"/>
<path d="M215.396 159.592L213.887 159.246L225.373 153.442L226.883 153.78L215.396 159.592Z" fill="#E3E3E3"/>
<path d="M215.389 158.826L213.879 158.489L225.375 152.677L226.884 153.014L215.389 158.826Z" fill="#D9D9D9"/>
<path d="M213.469 175.983L211.959 175.646L211.896 163.28L213.396 163.618L213.469 175.983Z" fill="#E3E3E3"/>
<path d="M212.959 176.238L211.449 175.901L211.386 163.536L212.886 163.881L212.959 176.238Z" fill="#D9D9D9"/>
<path d="M213.397 163.619L211.888 163.281C211.888 161.635 212.797 159.807 213.889 159.247L215.398 159.593C214.289 160.153 213.388 161.956 213.397 163.619Z" fill="#E4E4E4"/>
<path d="M226.883 153.78C227.993 153.22 228.902 154.117 228.911 155.78L228.984 168.129C228.984 169.776 228.075 171.603 226.983 172.163L215.496 177.959C214.387 178.519 213.477 177.621 213.468 175.958L213.396 163.61C213.396 161.963 214.305 160.144 215.396 159.584L226.883 153.78Z" fill="#FBFBFB"/>
<path d="M226.885 153.014C228.267 152.314 229.413 153.442 229.422 155.525L229.486 167.874C229.486 169.957 228.376 172.229 226.994 172.929L215.498 178.691C214.106 179.399 212.97 178.272 212.96 176.222L212.888 163.873C212.888 161.79 213.997 159.518 215.389 158.818L226.885 153.014ZM228.986 168.137L228.913 155.789C228.913 154.142 228.003 153.228 226.885 153.788L215.416 159.592C214.306 160.152 213.406 161.955 213.415 163.618L213.488 175.967C213.488 177.613 214.397 178.527 215.516 177.967L226.985 172.196C228.094 171.636 228.995 169.825 228.986 168.162" fill="#E7E7E7"/>
<path d="M212.885 163.882L211.385 163.536C211.385 161.461 212.485 159.189 213.877 158.489L215.386 158.827C213.995 159.527 212.876 161.799 212.885 163.882Z" fill="#D9D9D9"/>
<path d="M137.308 248.322L135.816 247.944C139.072 246.297 141.755 241.152 141.81 236.418C141.855 233.125 140.6 230.919 138.736 230.441L140.227 230.828C142.046 231.306 143.338 233.52 143.301 236.805C143.247 241.514 140.573 246.684 137.308 248.331" fill="#D3D3D3"/>
<path d="M136.496 247.713L135.005 247.326C137.87 245.894 140.234 241.358 140.28 237.208C140.28 234.319 139.216 232.376 137.551 231.948L139.043 232.335C140.68 232.763 141.771 234.706 141.771 237.595C141.726 241.712 139.361 246.272 136.496 247.713Z" fill="#DADADA"/>
<path d="M134.114 248.059L132.622 247.672C133.025 247.762 133.443 247.778 133.852 247.719C134.262 247.659 134.654 247.526 135.005 247.327L136.496 247.714C136.145 247.913 135.753 248.046 135.344 248.106C134.934 248.165 134.516 248.149 134.114 248.059Z" fill="#DADADA"/>
<path d="M134.361 247.269L132.879 246.882C133.24 246.961 133.615 246.974 133.982 246.92C134.349 246.867 134.701 246.747 135.016 246.569L136.508 246.956C136.191 247.135 135.838 247.255 135.469 247.308C135.101 247.362 134.724 247.349 134.361 247.269Z" fill="#BFBFBF"/>
<path d="M136.496 247.713L135.005 247.326C137.87 245.894 140.234 241.358 140.28 237.208C140.28 234.319 139.216 232.376 137.551 231.948L139.043 232.335C140.68 232.763 141.771 234.706 141.771 237.595C141.726 241.712 139.361 246.272 136.496 247.713Z" fill="#DADADA"/>
<path d="M136.506 246.956L135.015 246.569C137.588 245.277 139.717 241.202 139.762 237.513C139.762 234.912 138.853 233.167 137.325 232.78L138.816 233.167C140.29 233.554 141.281 235.299 141.254 237.9C141.208 241.63 139.08 245.705 136.506 246.997" fill="#BFBFBF"/>
<path d="M134.36 247.269L132.877 246.882C131.395 246.504 130.413 244.75 130.44 242.149C130.485 238.427 132.614 234.344 135.178 233.093L136.67 233.48C134.105 234.764 131.977 238.847 131.932 242.536C131.932 245.137 132.841 246.891 134.36 247.269Z" fill="#91C4BF"/>
<path d="M137.518 231.248L136.026 230.861C136.428 230.631 136.876 230.477 137.346 230.409C137.815 230.341 138.294 230.36 138.755 230.466L140.246 230.853C139.786 230.747 139.306 230.728 138.837 230.796C138.368 230.864 137.919 231.018 137.518 231.248Z" fill="#DADADA"/>
<path d="M136.671 233.447L135.18 233.06C135.495 232.879 135.848 232.757 136.217 232.702C136.586 232.647 136.963 232.659 137.326 232.739L138.818 233.126C138.454 233.046 138.077 233.033 137.708 233.089C137.34 233.144 136.987 233.266 136.671 233.447Z" fill="#91C4BF"/>
<path d="M137.525 230.491L136.033 230.104C136.467 229.857 136.952 229.692 137.458 229.619C137.965 229.545 138.482 229.565 138.98 229.676L140.471 230.063C139.974 229.951 139.456 229.932 138.95 230.005C138.444 230.079 137.959 230.244 137.525 230.491Z" fill="#D3D3D3"/>
<path d="M136.68 232.688L135.188 232.302C135.541 232.101 135.934 231.966 136.345 231.906C136.756 231.845 137.176 231.859 137.58 231.948L139.072 232.334C138.667 232.246 138.247 232.232 137.836 232.293C137.426 232.353 137.032 232.488 136.68 232.688Z" fill="#BFBFBF"/>
<path d="M134.36 247.269L132.877 246.882C131.395 246.504 130.413 244.75 130.44 242.149C130.485 238.427 132.614 234.344 135.178 233.093L136.67 233.48C134.105 234.764 131.977 238.847 131.932 242.536C131.932 245.137 132.841 246.891 134.36 247.269Z" fill="#91C4BF"/>
<path d="M134.115 248.059L132.624 247.672C130.987 247.253 129.896 245.301 129.896 242.412C129.941 238.296 132.306 233.735 135.161 232.302L136.653 232.689C133.797 234.122 131.433 238.658 131.378 242.799C131.378 245.688 132.451 247.639 134.106 248.059" fill="#BFBFBF"/>
<path d="M123.365 255.32L121.873 254.942L135.815 247.944L137.307 248.331L123.365 255.32Z" fill="#D2D2D2"/>
<path d="M120.654 255.723L119.162 255.336C119.623 255.437 120.102 255.455 120.57 255.387C121.039 255.319 121.487 255.167 121.891 254.941L123.382 255.32C122.981 255.549 122.532 255.703 122.063 255.773C121.594 255.842 121.115 255.825 120.654 255.723Z" fill="#D3D3D3"/>
<path d="M137.517 231.248C140.764 229.602 143.356 232.129 143.301 236.83C143.247 241.531 140.573 246.709 137.308 248.356L123.366 255.345C120.119 256.991 117.518 254.472 117.581 249.763C117.645 245.054 120.31 239.884 123.575 238.238L137.517 231.248ZM136.498 247.713C139.363 246.273 141.728 241.737 141.773 237.596C141.819 233.455 139.545 231.257 136.68 232.656C133.815 234.056 131.46 238.625 131.405 242.766C131.351 246.907 133.643 249.113 136.498 247.705" fill="#F5F5F5"/>
<path d="M123.565 238.246L122.083 237.859L136.025 230.861L137.517 231.248L123.565 238.246Z" fill="#D9D9D9"/>
<path d="M120.653 255.724L119.161 255.337C117.342 254.851 116.042 252.637 116.087 249.352C116.142 244.651 118.816 239.473 122.081 237.826L123.572 238.213C120.325 239.86 117.633 244.997 117.579 249.739C117.533 253.032 118.788 255.238 120.653 255.724Z" fill="#DADADA"/>
<path d="M137.526 230.491C141.064 228.721 143.893 231.446 143.82 236.566C143.747 241.687 140.837 247.31 137.299 249.08L123.356 256.077C119.819 257.856 116.99 255.122 117.054 249.994C117.117 244.865 120.046 239.291 123.584 237.488L137.526 230.491ZM137.308 248.322C140.555 246.676 143.247 241.539 143.301 236.797C143.356 232.055 140.764 229.585 137.517 231.215L123.557 238.246C120.31 239.892 117.618 245.029 117.563 249.771C117.509 254.513 120.101 256.983 123.347 255.353L137.29 248.355" fill="#E8E8E8"/>
<path d="M136.679 232.689C139.544 231.256 141.827 233.454 141.772 237.628C141.717 241.802 139.362 246.305 136.497 247.746C133.632 249.187 131.359 246.972 131.404 242.806C131.449 238.641 133.823 234.121 136.679 232.689ZM136.506 246.956C139.08 245.663 141.208 241.588 141.254 237.859C141.299 234.129 139.244 232.153 136.706 233.446C134.169 234.738 132.013 238.814 131.968 242.502C131.922 246.19 133.978 248.215 136.515 246.923" fill="#C2C2C2"/>
<path d="M136.67 233.446C139.244 232.154 141.3 234.13 141.218 237.859C141.136 241.588 139.044 245.663 136.47 246.956C133.896 248.248 131.85 246.264 131.923 242.535C131.996 238.806 134.106 234.763 136.67 233.446Z" fill="#6ACCC1"/>
<path d="M123.583 237.489L122.092 237.102L136.034 230.104L137.526 230.491L123.583 237.489Z" fill="#D2D2D2"/>
<path d="M120.41 256.514L118.918 256.168C116.89 255.641 115.526 253.229 115.562 249.656C115.626 244.535 118.554 238.954 122.092 237.143L123.584 237.529C120.046 239.308 117.117 244.939 117.054 250.035C117.054 253.616 118.373 256.028 120.41 256.555" fill="#D3D3D3"/>
<path d="M123.967 212.223L195.571 175.999C196.989 175.324 198.072 175.835 198.044 177.209C197.978 177.967 197.711 178.699 197.266 179.344C196.821 179.989 196.212 180.527 195.489 180.914L123.885 217.137C122.467 217.812 121.384 217.302 121.412 215.927C121.469 215.167 121.733 214.432 122.178 213.786C122.624 213.14 123.238 212.603 123.967 212.223Z" fill="#455A64"/>
</svg>
