<svg width="367" height="402" viewBox="0 0 367 402" fill="none" xmlns="http://www.w3.org/2000/svg">
<path d="M194.956 402C255.583 402 304.732 376.971 304.732 346.095C304.732 315.22 255.583 290.19 194.956 290.19C134.329 290.19 85.1807 315.22 85.1807 346.095C85.1807 376.971 134.329 402 194.956 402Z" fill="#F5F5F5"/>
<path d="M309.855 398.122C341.381 398.122 366.938 385.101 366.938 369.039C366.938 352.976 341.381 339.955 309.855 339.955C278.329 339.955 252.771 352.976 252.771 369.039C252.771 385.101 278.329 398.122 309.855 398.122Z" fill="#EEEEEE"/>
<path d="M308.683 246.236L305.165 245.827C305.304 245.766 305.429 245.683 305.535 245.582L309.053 245.99C308.947 246.091 308.822 246.174 308.683 246.236Z" fill="#D0D0D0"/>
<path d="M309.053 245.965L305.535 245.556C305.805 245.36 306.053 245.14 306.276 244.902L309.794 245.311C309.623 245.588 309.366 245.815 309.053 245.965Z" fill="#D1D1D1"/>
<path d="M309.886 245.23L306.368 244.821C306.615 244.568 306.832 244.294 307.016 244.003L310.534 244.412C310.373 244.715 310.154 244.992 309.886 245.23Z" fill="#D2D2D2"/>
<path d="M310.535 244.412L307.017 244.003C307.287 243.677 307.505 243.319 307.665 242.94L311.183 243.349C311.003 243.72 310.786 244.076 310.535 244.412Z" fill="#D3D3D3"/>
<path d="M311.228 243.349L307.71 242.94C307.988 242.45 308.173 241.878 308.451 241.305L311.969 241.714C311.666 242.238 311.419 242.786 311.228 243.349Z" fill="#D4D4D4"/>
<path d="M311.831 241.714L308.312 241.305C308.784 239.728 309.063 238.111 309.146 236.481L312.664 236.89C312.62 238.523 312.34 240.144 311.831 241.714Z" fill="#D5D5D5"/>
<path d="M312.664 236.808L309.146 236.399V236.236L312.664 236.645V236.808Z" fill="#D4D4D4"/>
<path d="M312.662 236.726L309.236 236.317L310.81 7.22266L314.236 7.71322L312.662 236.726Z" fill="#D7D7D7"/>
<path d="M314.237 7.71324L310.719 7.30444C310.736 6.78525 310.705 6.26564 310.626 5.75098L314.144 6.15978C314.224 6.67445 314.255 7.19405 314.237 7.71324Z" fill="#D4D4D4"/>
<path d="M314.236 6.07858L310.718 5.66978C310.626 5.26097 310.533 4.7704 310.44 4.44336L313.959 4.85217C314.095 5.2522 314.188 5.66288 314.236 6.07858Z" fill="#D3D3D3"/>
<path d="M314.005 4.85207L310.487 4.44327C310.36 4.09653 310.267 3.74096 310.209 3.38037L313.727 3.78918C313.82 4.11622 313.912 4.52503 314.005 4.85207Z" fill="#D2D2D2"/>
<path d="M313.68 3.8709L310.162 3.46209C310.014 3.1195 309.828 2.79082 309.606 2.48096L313.125 2.88976C313.347 3.19946 313.533 3.52817 313.68 3.8709Z" fill="#D1D1D1"/>
<path d="M313.218 2.88967L309.7 2.48086C309.551 2.20671 309.331 1.96752 309.057 1.78281C308.784 1.59809 308.465 1.47308 308.126 1.41797L311.644 1.82677C312.2 1.82677 312.755 2.23558 313.218 2.88967Z" fill="#D0D0D0"/>
<path d="M310.44 2.07159L306.922 1.66278C307.278 1.45793 307.704 1.37103 308.125 1.4175L311.644 1.8263C311.223 1.79768 310.803 1.88328 310.44 2.07159Z" fill="#DBDBDB"/>
<path d="M310.44 0.682218L306.922 0.273412C307.332 0.0372712 307.829 -0.0505504 308.311 0.0281296L311.829 0.436935C311.352 0.439038 310.881 0.522321 310.44 0.682218Z" fill="#D0D0D0"/>
<path d="M8.34574 393.217L4.82764 392.726L305.163 245.72L308.681 246.21L8.34574 393.217Z" fill="#D0D0D0"/>
<path d="M7.23735 393.462L3.71924 393.053C3.92817 393.088 4.14288 393.084 4.34996 393.042C4.55705 392.999 4.75205 392.92 4.9228 392.808L8.44091 393.217C8.27016 393.329 8.07515 393.408 7.86807 393.45C7.66099 393.493 7.44628 393.497 7.23735 393.462Z" fill="#D0D0D0"/>
<path d="M7.23653 393.462L3.71842 393.053C3.38187 392.993 3.0652 392.866 2.79248 392.682C2.51976 392.498 2.29817 392.261 2.14453 391.99L5.66264 392.399C5.81628 392.67 6.03787 392.907 6.31059 393.091C6.58331 393.275 6.89998 393.402 7.23653 393.462Z" fill="#DBDBDB"/>
<path d="M5.70934 392.317L2.19124 391.908C1.98762 391.59 1.80222 391.262 1.63574 390.927L5.15385 391.336C5.24183 391.699 5.43298 392.037 5.70934 392.317Z" fill="#DDDDDD"/>
<path d="M5.10675 391.418L1.58864 391.009C1.39938 390.68 1.30403 390.315 1.31089 389.946L4.829 390.355C4.8674 390.718 4.96081 391.076 5.10675 391.418Z" fill="#DEDEDE"/>
<path d="M4.83003 390.354L1.31192 389.946L1.03418 388.719L4.55229 389.128L4.83003 390.354Z" fill="#E0E0E0"/>
<path d="M4.55201 389.128L1.0339 388.719C0.956921 388.205 0.925963 387.685 0.941321 387.166L4.45943 387.575C4.45943 388.147 4.55201 388.638 4.55201 389.128Z" fill="#E1E1E1"/>
<path d="M6.95763 394.853L3.43953 394.444C3.05287 394.361 2.68934 394.209 2.37103 393.999C2.05272 393.788 1.78627 393.522 1.58789 393.217L5.106 393.626C5.30438 393.931 5.57082 394.196 5.88914 394.407C6.20745 394.618 6.57098 394.77 6.95763 394.853Z" fill="#D0D0D0"/>
<path d="M5.19841 393.544L1.6803 393.136C1.40255 392.809 1.30997 392.482 1.03223 392.073L4.55033 392.482C4.73 392.852 4.94689 393.208 5.19841 393.544Z" fill="#D1D1D1"/>
<path d="M4.55055 392.4L1.03244 391.991C0.842876 391.6 0.718148 391.187 0.662109 390.765L4.18022 391.173C4.23626 391.596 4.36098 392.009 4.55055 392.4Z" fill="#D2D2D2"/>
<path d="M4.18062 391.173L0.66251 390.765L0.384766 389.293L3.90287 389.702C3.99546 390.192 4.08804 390.765 4.18062 391.173Z" fill="#D3D3D3"/>
<path d="M3.90261 389.783L0.384499 389.375C0.307462 388.75 0.276538 388.122 0.291919 387.494L3.81003 387.903C3.88706 388.527 3.91799 389.156 3.90261 389.783Z" fill="#D4D4D4"/>
<path d="M10.012 149.079L6.58643 148.67L307.014 1.58154L310.44 2.07211L10.012 149.079Z" fill="#DCDCDC"/>
<path d="M10.012 147.77L6.58643 147.279L307.014 0.272949L310.44 0.681755L10.012 147.77Z" fill="#D0D0D0"/>
<path d="M8.16167 150.877L4.64355 150.468C4.9213 150.141 5.10646 149.814 5.29163 149.651L8.80974 150.06C8.62457 150.223 8.43941 150.55 8.16167 150.877Z" fill="#DEDEDE"/>
<path d="M8.90239 149.977L5.38428 149.569L6.12493 148.915L9.64304 149.323C9.37338 149.52 9.12539 149.739 8.90239 149.977Z" fill="#DDDDDD"/>
<path d="M9.64311 149.324L6.125 148.915C6.26432 148.854 6.38982 148.77 6.49533 148.669L10.0134 149.078C9.90794 149.179 9.78243 149.262 9.64311 149.324Z" fill="#DBDBDB"/>
<path d="M7.60551 151.939L4.0874 151.531C4.2472 151.152 4.46527 150.794 4.73548 150.468L8.25358 150.877C8.06842 151.204 7.79067 151.531 7.60551 151.939Z" fill="#E0E0E0"/>
<path d="M8.16118 150.876L4.64307 150.468C4.92081 150.14 5.10598 149.813 5.29114 149.65L8.80925 150.059C8.62408 150.222 8.43892 150.549 8.16118 150.876Z" fill="#DEDEDE"/>
<path d="M6.95561 153.576L3.4375 153.167C3.64421 152.608 3.89161 152.062 4.17815 151.532L7.69627 151.941C7.35532 152.449 7.10548 153 6.95561 153.576Z" fill="#E1E1E1"/>
<path d="M7.60356 151.94L4.08545 151.532C4.24524 151.153 4.46331 150.795 4.73352 150.469L8.25163 150.878C8.06647 151.205 7.78872 151.532 7.60356 151.94Z" fill="#E0E0E0"/>
<path d="M6.12229 158.399L2.60419 157.99C2.58787 156.353 2.86919 154.725 3.43742 153.167L6.95553 153.575C6.3873 155.134 6.10598 156.762 6.12229 158.399Z" fill="#E3E3E3"/>
<path d="M6.95463 153.575L3.43652 153.166C3.64323 152.608 3.89063 152.062 4.17718 151.531L7.69529 151.94C7.35435 152.448 7.1045 153 6.95463 153.575Z" fill="#E1E1E1"/>
<path d="M4.45678 387.576L1.03125 387.167L2.60514 158.154L6.12325 158.563L4.45678 387.576Z" fill="#E6E6E6"/>
<path d="M6.1226 158.562L2.60449 158.153V157.99L6.1226 158.399V158.562Z" fill="#E1E1E1"/>
<path d="M6.12229 158.399L2.60419 157.99C2.58787 156.353 2.86919 154.724 3.43742 153.166L6.95553 153.575C6.3873 155.133 6.10598 156.762 6.12229 158.399Z" fill="#E3E3E3"/>
<path d="M6.12229 158.399L2.60419 157.99C2.58787 156.353 2.86919 154.724 3.43742 153.166L6.95553 153.575C6.3873 155.133 6.10598 156.762 6.12229 158.399Z" fill="#E3E3E3"/>
<path d="M6.12229 158.399L2.60419 157.99C2.58787 156.353 2.86919 154.724 3.43742 153.166L6.95553 153.575C6.3873 155.133 6.10598 156.762 6.12229 158.399Z" fill="#E3E3E3"/>
<path d="M3.90141 387.903L0.383301 387.412L1.95719 158.481L5.38272 158.89L3.90141 387.903Z" fill="#D7D7D7"/>
<path d="M310.439 0.681883C313.031 -0.544534 314.976 2.48063 314.976 7.30454L313.309 236.236C313.309 241.141 311.18 246.129 308.68 247.355L8.34461 394.525C5.75232 395.752 3.80811 392.727 3.80811 387.903L5.47458 158.971C5.47458 154.066 7.60396 149.078 10.1037 147.852L310.439 0.681883ZM312.661 236.726L314.328 7.7951C314.328 3.62528 312.661 1.09069 310.439 2.15358L10.0111 149.078C7.88171 150.141 6.03007 154.393 6.03007 158.563L4.36359 387.494C4.36359 391.664 6.03007 394.198 8.25203 393.135L308.68 246.235C310.902 245.172 312.661 240.921 312.661 236.751" fill="#E5E5E5"/>
<path d="M310.44 2.07186C312.569 1.00897 314.328 3.54356 314.328 7.71338L312.662 236.645C312.662 240.814 310.903 245.066 308.681 246.129L8.34546 393.217C6.21608 394.28 4.45703 391.745 4.45703 387.576L6.1235 158.644C6.1235 154.475 7.88256 150.223 10.1045 149.16L310.44 2.07186Z" fill="#FBFBFB"/>
<path d="M5.38286 158.889L1.86475 158.481V158.235L5.38286 158.644V158.889Z" fill="#D4D4D4"/>
<path d="M5.38299 158.644L1.86488 158.235C1.85705 156.319 2.20097 154.413 2.88328 152.594L6.40139 153.003C5.78533 154.836 5.44297 156.732 5.38299 158.644Z" fill="#D5D5D5"/>
<path d="M6.4019 153.027L2.88379 152.618C3.16153 151.964 3.3467 151.31 3.62444 150.738L7.14255 151.147C6.86481 151.719 6.67964 152.373 6.4019 153.027Z" fill="#D4D4D4"/>
<path d="M7.23491 151.122L3.7168 150.713C3.99454 150.223 4.17971 149.814 4.45745 149.405L7.97556 149.814C7.67408 150.224 7.42564 150.663 7.23491 151.122Z" fill="#D3D3D3"/>
<path d="M7.88285 149.814L4.36475 149.406C4.63217 149.063 4.87938 148.708 5.1054 148.343L8.62351 148.752C8.432 149.134 8.18286 149.491 7.88285 149.814Z" fill="#D2D2D2"/>
<path d="M8.62358 148.833L5.10547 148.424C5.36572 148.112 5.67784 147.836 6.03129 147.606L9.5494 148.015L8.62358 148.833Z" fill="#D1D1D1"/>
<path d="M9.54887 148.015L6.03076 147.607C6.21593 147.525 6.30851 147.361 6.49367 147.361L10.0118 147.77C9.87055 147.87 9.71487 147.952 9.54887 148.015Z" fill="#D0D0D0"/>
<path d="M229.012 68.3549C228.594 68.1916 228.134 68.1283 227.679 68.1713C227.224 68.2144 226.79 68.3623 226.42 68.6002L119.21 123.217C118.132 123.832 117.235 124.664 116.591 125.645C115.948 126.625 115.576 127.726 115.507 128.858V312.821C115.457 313.211 115.524 313.605 115.703 313.964C115.882 314.323 116.166 314.634 116.525 314.865C117.173 315.274 119.951 316.582 120.599 316.909C121.02 317.104 121.493 317.192 121.968 317.163C122.442 317.134 122.897 316.99 123.284 316.745L230.586 262.129C232.623 261.066 234.289 259.758 234.289 257.714V72.5247C234.344 72.1144 234.269 71.6986 234.073 71.3234C233.877 70.9483 233.568 70.6283 233.178 70.3989L229.012 68.3549Z" fill="#E0E0E0"/>
<path d="M234.104 257.681C234.104 259.725 232.438 261.033 230.401 262.096L123.191 316.794C121.154 317.857 119.488 316.958 119.488 314.913V130.951C119.557 129.819 119.929 128.718 120.572 127.737C121.216 126.757 122.113 125.925 123.191 125.309L230.401 70.6112C232.438 69.5483 234.104 70.4477 234.104 72.4917V257.681Z" fill="#FAFAFA"/>
<path d="M232.067 71.053C233.086 71.053 233.178 72.1159 233.178 72.5247V257.681C233.178 259.153 232.16 260.297 229.938 261.36L122.728 316.058C122.363 316.252 121.95 316.364 121.525 316.385C120.506 316.385 120.414 315.323 120.414 314.914V130.951C120.495 129.969 120.829 129.017 121.391 128.167C121.952 127.317 122.726 126.591 123.654 126.046L230.864 71.3473C231.209 71.1175 231.635 71.0017 232.067 71.0202V71.053ZM232.067 70.2026C231.469 70.2151 230.888 70.386 230.401 70.6932L123.191 125.391C122.113 126.007 121.216 126.839 120.572 127.819C119.929 128.8 119.557 129.901 119.488 131.033V314.996C119.488 316.467 120.321 317.285 121.525 317.285C122.108 317.265 122.679 317.125 123.191 316.876L230.493 262.26C232.53 261.197 234.197 259.889 234.197 257.844V72.5247C234.104 71.053 233.271 70.2353 232.067 70.2353V70.2026Z" fill="#E0E0E0"/>
<path d="M141.06 202.77C141.06 206.122 143.93 207.43 147.448 205.632L207.441 175.053C210.959 173.254 213.829 169.085 213.829 165.651C213.829 162.217 210.959 160.99 207.441 162.789L147.448 193.368C143.93 195.248 141.06 199.418 141.06 202.77Z" fill="#BA68C8"/>
<path opacity="0.6" d="M141.06 202.77C141.06 206.122 143.93 207.43 147.448 205.632L207.441 175.053C210.959 173.254 213.829 169.085 213.829 165.651C213.829 162.217 210.959 160.99 207.441 162.789L147.448 193.368C143.93 195.248 141.06 199.418 141.06 202.77Z" fill="white"/>
<path d="M147.263 197.619L207.811 166.713C209.015 166.141 209.941 166.55 209.941 167.695C209.893 168.325 209.675 168.936 209.304 169.477C208.934 170.018 208.422 170.472 207.811 170.801L147.263 201.707C146.059 202.279 145.133 201.871 145.133 200.726C145.174 200.094 145.389 199.48 145.76 198.939C146.132 198.397 146.647 197.944 147.263 197.619Z" fill="#455A64"/>
<path d="M141.06 224.977C141.06 228.329 143.93 229.637 147.448 227.838L207.441 197.26C210.959 195.461 213.829 191.291 213.829 187.857C213.829 184.423 210.959 183.197 207.441 184.995L147.448 215.574C143.93 217.487 141.06 221.657 141.06 224.977Z" fill="#BA68C8"/>
<path opacity="0.6" d="M141.06 224.977C141.06 228.329 143.93 229.637 147.448 227.838L207.441 197.26C210.959 195.461 213.829 191.291 213.829 187.857C213.829 184.423 210.959 183.197 207.441 184.995L147.448 215.574C143.93 217.487 141.06 221.657 141.06 224.977Z" fill="white"/>
<path d="M151.058 217.897C152.169 217.324 153.095 217.815 153.095 218.878C153.046 219.498 152.836 220.101 152.484 220.639C152.131 221.178 151.643 221.638 151.058 221.985C149.947 222.557 149.021 222.066 149.021 221.003C149.09 220.387 149.308 219.791 149.659 219.255C150.01 218.719 150.488 218.256 151.058 217.897Z" fill="#455A64"/>
<path d="M158.923 217.444C159.715 216.231 159.711 214.919 158.914 214.513C158.117 214.106 156.828 214.76 156.036 215.972C155.244 217.185 155.248 218.497 156.045 218.903C156.842 219.309 158.131 218.656 158.923 217.444Z" fill="#455A64"/>
<path d="M163.742 211.437C164.853 210.865 165.779 211.355 165.779 212.418C165.73 213.039 165.521 213.641 165.168 214.18C164.815 214.718 164.327 215.178 163.742 215.525C162.631 216.097 161.706 215.607 161.706 214.544C161.747 213.922 161.953 213.317 162.307 212.777C162.661 212.238 163.152 211.779 163.742 211.437Z" fill="#455A64"/>
<path d="M170.037 208.249C171.148 207.676 172.074 208.167 172.074 209.23C172.031 209.841 171.824 210.434 171.47 210.96C171.116 211.486 170.625 211.93 170.037 212.255C168.926 212.827 168 212.337 168 211.274C168.043 210.663 168.25 210.07 168.605 209.544C168.959 209.018 169.45 208.574 170.037 208.249Z" fill="#455A64"/>
<path d="M176.334 205.06C177.445 204.487 178.278 204.978 178.278 206.041C178.223 206.651 178.022 207.244 177.686 207.78C177.351 208.316 176.89 208.782 176.334 209.148C175.223 209.72 174.297 209.229 174.297 208.167C174.327 207.542 174.528 206.933 174.882 206.392C175.237 205.851 175.735 205.393 176.334 205.06Z" fill="#455A64"/>
<path d="M184.085 204.595C184.878 203.383 184.874 202.071 184.077 201.664C183.28 201.258 181.991 201.912 181.199 203.124C180.406 204.336 180.41 205.649 181.208 206.055C182.005 206.461 183.293 205.808 184.085 204.595Z" fill="#455A64"/>
<path d="M188.924 198.601C190.035 198.028 190.961 198.519 190.961 199.582C190.912 200.202 190.703 200.805 190.35 201.343C189.997 201.882 189.509 202.342 188.924 202.689C187.814 203.261 186.888 202.77 186.888 201.708C186.957 201.091 187.174 200.495 187.525 199.959C187.877 199.424 188.354 198.96 188.924 198.601Z" fill="#455A64"/>
<path d="M196.659 198.164C197.451 196.952 197.448 195.64 196.65 195.233C195.853 194.827 194.565 195.481 193.772 196.693C192.98 197.905 192.984 199.218 193.781 199.624C194.578 200.03 195.867 199.377 196.659 198.164Z" fill="#455A64"/>
<path d="M201.608 192.142C202.719 191.569 203.645 192.06 203.645 193.123C203.602 193.734 203.395 194.327 203.041 194.853C202.687 195.379 202.195 195.823 201.608 196.148C200.497 196.72 199.571 196.23 199.571 195.167C199.614 194.556 199.821 193.963 200.175 193.437C200.53 192.911 201.021 192.467 201.608 192.142Z" fill="#455A64"/>
<path d="M207.903 188.953C209.014 188.38 209.94 188.871 209.94 189.934C209.897 190.545 209.69 191.138 209.336 191.664C208.981 192.19 208.49 192.634 207.903 192.959C206.792 193.531 205.866 193.041 205.866 191.978C205.909 191.367 206.116 190.774 206.47 190.248C206.825 189.722 207.316 189.278 207.903 188.953Z" fill="#455A64"/>
<path d="M141.06 249.701C141.06 253.053 143.93 254.361 147.448 252.562L207.441 221.984C210.959 220.185 213.829 216.015 213.829 212.581C213.829 209.147 210.959 207.921 207.441 209.72L147.448 240.298C143.93 242.097 141.06 246.349 141.06 249.701Z" fill="#BA68C8"/>
<path opacity="0.6" d="M141.06 249.701C141.06 253.053 143.93 254.361 147.448 252.562L207.441 221.984C210.959 220.185 213.829 216.015 213.829 212.581C213.829 209.147 210.959 207.921 207.441 209.72L147.448 240.298C143.93 242.097 141.06 246.349 141.06 249.701Z" fill="white"/>
<path d="M151.058 242.588C152.169 242.016 153.095 242.506 153.095 243.569C153.046 244.19 152.836 244.792 152.484 245.331C152.131 245.869 151.643 246.329 151.058 246.676C149.947 247.248 149.021 246.758 149.021 245.695C149.09 245.079 149.308 244.483 149.659 243.947C150.01 243.411 150.488 242.948 151.058 242.588Z" fill="#455A64"/>
<path d="M158.858 242.082C159.65 240.87 159.646 239.558 158.849 239.151C158.052 238.745 156.764 239.399 155.971 240.611C155.179 241.823 155.183 243.136 155.98 243.542C156.777 243.948 158.066 243.295 158.858 242.082Z" fill="#455A64"/>
<path d="M163.742 236.128C164.853 235.556 165.779 236.047 165.779 237.11C165.73 237.73 165.521 238.333 165.168 238.871C164.815 239.409 164.327 239.87 163.742 240.217C162.631 240.789 161.706 240.298 161.706 239.235C161.735 238.611 161.936 238.002 162.291 237.461C162.646 236.919 163.144 236.462 163.742 236.128Z" fill="#455A64"/>
<path d="M170.037 232.939C171.148 232.367 172.074 232.858 172.074 233.921C172.031 234.532 171.824 235.125 171.47 235.651C171.116 236.177 170.625 236.621 170.037 236.946C168.926 237.518 168 237.028 168 235.965C168.043 235.354 168.25 234.761 168.605 234.235C168.959 233.708 169.45 233.264 170.037 232.939Z" fill="#455A64"/>
<path d="M176.334 229.669C177.445 229.097 178.278 229.588 178.278 230.651C178.223 231.261 178.022 231.854 177.686 232.39C177.351 232.926 176.89 233.392 176.334 233.758C175.223 234.33 174.297 233.839 174.297 232.776C174.346 232.156 174.555 231.553 174.908 231.015C175.261 230.477 175.749 230.016 176.334 229.669Z" fill="#455A64"/>
<path d="M184.098 229.28C184.89 228.068 184.887 226.755 184.089 226.349C183.292 225.943 182.004 226.596 181.211 227.809C180.419 229.021 180.423 230.333 181.22 230.74C182.017 231.146 183.306 230.492 184.098 229.28Z" fill="#455A64"/>
<path d="M188.924 223.292C190.035 222.72 190.961 223.21 190.961 224.273C190.912 224.894 190.703 225.496 190.35 226.035C189.997 226.573 189.509 227.033 188.924 227.38C187.814 227.952 186.888 227.462 186.888 226.399C186.957 225.783 187.174 225.187 187.525 224.651C187.877 224.115 188.354 223.652 188.924 223.292Z" fill="#455A64"/>
<path d="M196.675 222.846C197.467 221.634 197.463 220.322 196.666 219.915C195.869 219.509 194.58 220.163 193.788 221.375C192.996 222.587 193 223.9 193.797 224.306C194.594 224.712 195.883 224.059 196.675 222.846Z" fill="#455A64"/>
<path d="M201.608 216.8C202.719 216.228 203.645 216.718 203.645 217.781C203.602 218.392 203.395 218.985 203.041 219.511C202.687 220.037 202.195 220.481 201.608 220.806C200.497 221.378 199.571 220.888 199.571 219.825C199.614 219.214 199.821 218.621 200.175 218.095C200.53 217.569 201.021 217.125 201.608 216.8Z" fill="#455A64"/>
<path d="M207.903 213.644C209.014 213.072 209.94 213.562 209.94 214.625C209.897 215.236 209.69 215.829 209.336 216.355C208.982 216.881 208.491 217.325 207.903 217.65C206.793 218.223 205.867 217.732 205.867 216.669C205.91 216.058 206.117 215.465 206.471 214.939C206.825 214.413 207.316 213.969 207.903 213.644Z" fill="#455A64"/>
<path d="M167.723 263.935L195.219 249.954C197.534 248.728 199.478 249.709 199.478 252.162V255.678C199.383 256.983 198.95 258.252 198.212 259.386C197.473 260.52 196.449 261.489 195.219 262.218L167.723 276.2C165.408 277.426 163.464 276.445 163.464 273.992V270.476C163.547 269.168 163.976 267.896 164.715 266.76C165.455 265.624 166.485 264.657 167.723 263.935Z" fill="#BA68C8"/>
<path d="M167.444 270.068V270.313C167.444 271.54 168.37 272.03 169.574 271.376L193.367 259.317C193.989 258.959 194.507 258.476 194.877 257.907C195.247 257.339 195.459 256.701 195.497 256.046V255.801C195.497 254.574 194.571 254.084 193.367 254.738L169.666 266.839C169.039 267.189 168.511 267.663 168.126 268.223C167.74 268.783 167.507 269.415 167.444 270.068Z" fill="#FAFAFA"/>
<path d="M146.336 140.468C146.711 140.242 147.14 140.095 147.589 140.038C148.039 139.981 148.497 140.017 148.929 140.141C149.347 140.296 149.721 140.53 150.025 140.827C150.329 141.124 150.555 141.476 150.688 141.858C151.181 142.977 151.402 144.175 151.336 145.374L148.188 146.927C148.282 146.235 148.084 145.537 147.633 144.965C147.461 144.797 147.227 144.688 146.972 144.658C146.718 144.628 146.46 144.679 146.244 144.802C145.654 145.093 145.196 145.555 144.948 146.11C144.6 146.716 144.44 147.393 144.485 148.072C144.469 148.325 144.51 148.577 144.606 148.816C144.701 149.054 144.849 149.274 145.04 149.462C145.6 149.836 146.283 150.037 146.985 150.034C147.767 150.064 148.529 150.26 149.207 150.607C150.688 151.342 151.336 152.978 151.428 155.594C151.493 157.485 151.049 159.362 150.132 161.072C149.4 162.537 148.171 163.766 146.614 164.588C146.192 164.823 145.72 164.981 145.227 165.051C144.733 165.122 144.229 165.103 143.744 164.997C143.289 164.844 142.878 164.603 142.541 164.292C142.205 163.98 141.952 163.607 141.8 163.198C141.308 161.993 141.088 160.716 141.152 159.437L144.3 157.883C144.2 158.732 144.394 159.587 144.855 160.336C145.226 160.745 145.781 160.745 146.614 160.336C147.173 160.072 147.601 159.635 147.818 159.11C148.113 158.517 148.27 157.877 148.281 157.229C148.33 156.628 148.168 156.029 147.818 155.512C147.324 155.147 146.702 154.945 146.059 154.94C145.365 154.87 144.682 154.733 144.022 154.531C142.263 153.877 141.43 152.242 141.43 149.625C141.411 148.349 141.63 147.078 142.078 145.864C142.436 144.715 143.033 143.634 143.837 142.676C144.395 141.731 145.267 140.961 146.336 140.468Z" fill="#A7A7A7"/>
<path d="M153.187 160.908L153.001 143.493L156.057 142.021L156.242 159.355L153.187 160.908Z" fill="#A7A7A7"/>
<path d="M153.279 140.762C152.939 140.272 152.778 139.701 152.816 139.127C152.827 138.4 152.983 137.68 153.279 137.001C153.498 136.456 153.923 135.994 154.483 135.693C154.574 135.634 154.677 135.591 154.787 135.568C154.897 135.544 155.011 135.54 155.123 135.555C155.235 135.57 155.342 135.604 155.438 135.656C155.535 135.708 155.619 135.776 155.686 135.857C156.026 136.347 156.188 136.918 156.149 137.492C156.139 138.219 155.982 138.939 155.686 139.618C155.468 140.163 155.043 140.625 154.483 140.926C154.391 140.985 154.288 141.028 154.178 141.051C154.068 141.075 153.954 141.079 153.842 141.064C153.731 141.049 153.623 141.015 153.527 140.963C153.43 140.911 153.346 140.843 153.279 140.762Z" fill="#A7A7A7"/>
<path d="M164.112 138.097L166.89 136.707L167.075 153.386C167.089 154.818 166.903 156.246 166.519 157.638C166.201 158.875 165.602 160.043 164.76 161.072C164.091 161.967 163.205 162.721 162.168 163.279C161.515 163.584 160.77 163.699 160.039 163.606C159.697 163.53 159.379 163.387 159.107 163.189C158.835 162.991 158.616 162.743 158.465 162.462L159.761 158.701C160.316 159.6 161.057 159.845 161.983 159.355C163.372 158.701 164.02 157.147 164.02 154.694V154.122C163.725 155.272 162.926 156.271 161.798 156.902C160.594 157.474 159.668 157.147 158.835 155.921C158.002 154.694 157.724 152.65 157.632 149.952V149.756C157.594 148.111 157.749 146.467 158.094 144.85C158.319 143.512 158.788 142.214 159.483 141.008C159.91 140.112 160.658 139.366 161.613 138.882C161.811 138.758 162.039 138.676 162.28 138.643C162.52 138.609 162.765 138.624 162.998 138.688C163.23 138.751 163.443 138.86 163.62 139.007C163.797 139.154 163.934 139.335 164.02 139.536L164.112 138.097ZM163.927 150.606L163.834 143.33C163.557 142.676 163.094 142.512 162.446 142.839C161.89 143.084 161.52 143.738 161.15 144.72C160.819 146.034 160.663 147.379 160.687 148.726C160.653 149.804 160.809 150.879 161.15 151.915C161.427 152.569 161.89 152.814 162.446 152.569C163.182 152.086 163.706 151.392 163.927 150.606Z" fill="#A7A7A7"/>
<path d="M174.296 132.783C174.475 132.656 174.685 132.568 174.909 132.524C175.133 132.48 175.365 132.482 175.589 132.529C175.812 132.576 176.02 132.668 176.197 132.797C176.374 132.926 176.515 133.089 176.61 133.273C177.166 134.091 177.444 135.563 177.444 137.77L177.536 148.972L174.481 150.443L174.388 139.487C174.438 138.877 174.344 138.265 174.111 137.689C173.925 137.361 173.555 137.361 173 137.607C172.312 138.065 171.848 138.737 171.703 139.487L171.796 151.751L168.741 153.223L168.556 135.89L171.426 134.5L171.518 136.462C172.166 134.582 173.092 133.355 174.296 132.783Z" fill="#A7A7A7"/>
<path d="M194.109 117.411L194.202 132.7C194.215 134.321 194.029 135.939 193.646 137.524C193.305 138.857 192.71 140.128 191.887 141.285C191.205 142.271 190.249 143.088 189.11 143.656C187.536 144.474 186.24 144.311 185.314 143.329C184.388 142.348 183.925 140.55 183.833 137.933L183.74 122.562L186.981 121.009L187.073 136.543C187.166 139.078 187.814 140.059 189.11 139.405C189.81 138.997 190.332 138.392 190.591 137.688C190.969 136.603 191.126 135.468 191.054 134.336L190.962 119.046L194.109 117.411Z" fill="#A7A7A7"/>
<path d="M205.868 115.416C206.358 116.649 206.578 117.954 206.516 119.259C206.541 121.358 206.101 123.442 205.22 125.391C204.478 127.033 203.144 128.413 201.424 129.316L199.387 130.297L199.479 138.228L196.332 139.781L196.146 116.398L201.424 113.781C201.817 113.558 202.262 113.413 202.725 113.356C203.189 113.3 203.661 113.333 204.109 113.454C204.966 113.876 205.599 114.582 205.868 115.416ZM202.905 123.347C203.216 122.531 203.372 121.674 203.368 120.813C203.434 119.992 203.241 119.172 202.812 118.442C202.756 118.331 202.672 118.232 202.568 118.153C202.463 118.075 202.339 118.018 202.206 117.986C202.073 117.955 201.934 117.95 201.798 117.972C201.663 117.995 201.535 118.043 201.424 118.115L199.294 119.177L199.387 125.882L201.516 124.901C202.14 124.513 202.623 123.973 202.905 123.347Z" fill="#A7A7A7"/>
<path d="M91.1585 222.801L95.6024 224.518L100.139 218.386V219.94L95.6024 226.072L91.0659 224.355L91.1585 222.801Z" fill="#63C0B6"/>
<path d="M100.138 216.8C100.786 216.473 101.249 216.964 101.249 217.863L101.157 227.266C101.158 227.67 101.06 228.07 100.868 228.437C100.676 228.805 100.395 229.13 100.046 229.392L90.9728 233.807C90.3247 234.134 89.8618 233.643 89.8618 232.826L89.9544 223.423C89.9527 223.019 90.0513 222.619 90.2433 222.251C90.4352 221.884 90.7158 221.559 91.0654 221.297L100.138 216.8ZM100.138 219.907V218.354L95.6019 224.486L91.158 222.769V224.322L95.6019 226.039L100.138 219.907Z" fill="#F0F0F0"/>
<path d="M103.564 210.374C104.767 209.801 105.786 211.191 105.786 213.644L105.693 227.135C105.693 229.506 104.675 231.959 103.471 232.531L87.7322 240.217C86.5287 240.789 85.5103 239.399 85.5103 236.946L85.6028 223.456C85.6028 221.084 86.6212 218.632 87.8248 218.059L103.564 210.374Z" fill="#63C0B6"/>
<path d="M96.6211 267.607C97.6395 267.116 98.4728 267.77 98.4728 269.16V270.714L94.6769 272.594V271.041C94.6642 270.372 94.8343 269.711 95.1728 269.113C95.5113 268.516 96.0081 267.999 96.6211 267.607Z" fill="#67C9BE"/>
<path d="M105.231 258.367C106.434 257.795 107.453 259.185 107.453 261.638L107.36 276.437C107.36 278.808 106.342 281.261 105.138 281.833L87.9178 290.254C86.7142 290.827 85.6958 289.437 85.6958 286.984L85.7884 272.185C85.7884 269.814 86.8068 267.361 88.0103 266.789L105.231 258.367Z" fill="#67C9BE"/>
<path d="M96.6202 299.748C97.6386 299.257 98.4718 299.911 98.4718 301.301V302.855L94.676 304.735V303.182C94.6632 302.514 94.8333 301.852 95.1718 301.255C95.5103 300.657 96.0071 300.14 96.6202 299.748Z" fill="#67C9BE"/>
<path d="M105.231 290.509C106.434 289.936 107.453 291.326 107.453 293.779L107.36 308.578C107.36 310.949 106.342 313.402 105.138 313.974L87.9178 322.395C86.7142 322.968 85.6958 321.578 85.6958 319.125L85.7884 304.326C85.7884 301.955 86.8068 299.502 88.0103 298.93L105.231 290.509Z" fill="#67C9BE"/>
<path d="M136.986 227.543C118.192 236.374 104.583 242.996 101.527 244.632C99.813 245.468 98.4009 246.715 97.4539 248.229C96.9777 249.042 96.6942 249.932 96.6206 250.845C96.6206 253.871 96.7132 256.896 96.7132 260.003" stroke="#263238" stroke-width="2" stroke-miterlimit="10"/>
<path d="M137.819 229.261C138.361 228.966 138.813 228.558 139.136 228.074C139.458 227.589 139.642 227.043 139.671 226.481C139.671 225.5 138.838 225.009 137.819 225.582C137.278 225.877 136.826 226.284 136.503 226.769C136.18 227.253 135.997 227.8 135.968 228.362C135.968 229.343 136.801 229.751 137.819 229.261Z" fill="#455A64"/>
<path d="M136.986 252.481L111.434 265.236" stroke="#263238" stroke-width="2" stroke-miterlimit="10"/>
<path d="M137.819 254.198C138.361 253.903 138.813 253.496 139.136 253.011C139.458 252.527 139.642 251.98 139.671 251.418C139.671 250.437 138.838 249.947 137.819 250.519C137.278 250.814 136.826 251.222 136.503 251.706C136.18 252.191 135.997 252.738 135.968 253.299C135.968 254.28 136.801 254.689 137.819 254.198Z" fill="#455A64"/>
<path d="M96.5289 261.066C97.0706 260.771 97.5224 260.363 97.8451 259.879C98.1678 259.394 98.3516 258.848 98.3805 258.286C98.3805 257.305 97.5473 256.814 96.5289 257.387C95.9872 257.682 95.5353 258.089 95.2126 258.574C94.8899 259.058 94.7061 259.605 94.6772 260.167C94.6772 261.148 95.5105 261.557 96.5289 261.066Z" fill="#455A64"/>
<path d="M110.878 267.852C111.42 267.557 111.872 267.15 112.195 266.665C112.517 266.181 112.701 265.634 112.73 265.072C112.73 264.091 111.897 263.601 110.878 264.173C110.337 264.468 109.885 264.876 109.562 265.36C109.24 265.845 109.056 266.391 109.027 266.953C109.027 267.934 109.86 268.31 110.878 267.852Z" fill="#455A64"/>
<path d="M160.807 274.704L111.434 299.379" stroke="#263238" stroke-width="2" stroke-miterlimit="10"/>
<path d="M161.242 276.167C161.783 275.872 162.235 275.465 162.558 274.98C162.881 274.496 163.065 273.949 163.093 273.387C163.093 272.406 162.26 271.916 161.242 272.488C160.7 272.783 160.248 273.191 159.926 273.675C159.603 274.159 159.419 274.706 159.39 275.268C159.39 276.249 160.177 276.658 161.242 276.167Z" fill="#455A64"/>
<path d="M110.878 301.955C111.42 301.66 111.872 301.252 112.195 300.768C112.517 300.283 112.701 299.736 112.73 299.175C112.73 298.194 111.897 297.703 110.878 298.275C110.337 298.571 109.885 298.978 109.562 299.463C109.24 299.947 109.056 300.494 109.027 301.055C109.027 302.036 109.86 302.445 110.878 301.955Z" fill="#455A64"/>
<path d="M136.986 205.141L111.434 217.896" stroke="#263238" stroke-width="2" stroke-miterlimit="10"/>
<path d="M137.819 206.858C138.361 206.563 138.813 206.155 139.136 205.671C139.458 205.186 139.642 204.64 139.671 204.078C139.671 203.097 138.838 202.606 137.819 203.179C137.278 203.474 136.826 203.881 136.503 204.366C136.18 204.85 135.997 205.397 135.968 205.959C135.968 206.94 136.801 207.349 137.819 206.858Z" fill="#455A64"/>
<path d="M110.878 220.512C111.42 220.217 111.872 219.81 112.195 219.325C112.517 218.841 112.701 218.294 112.73 217.732C112.73 216.751 111.897 216.261 110.878 216.833C110.337 217.128 109.885 217.536 109.562 218.02C109.24 218.505 109.056 219.051 109.027 219.613C109.027 220.594 109.86 221.003 110.878 220.512Z" fill="#455A64"/>
<path d="M97.2407 219.049L97.2129 229.139L95.4816 229.523L95.5094 221.813L93.4448 223.007L93.4541 221.38L97.0463 219.09L97.2407 219.049Z" fill="white"/>
<path d="M97.1778 300.377C97.7888 300.042 98.261 300.091 98.6128 300.524C99.0354 301.226 99.2217 302.021 99.1498 302.814C99.1505 303.384 99.0727 303.952 98.9183 304.506C98.7788 305 98.5672 305.475 98.2888 305.92C98.6128 305.986 98.8535 306.231 99.0202 306.64C99.1982 307.17 99.2825 307.722 99.2702 308.275C99.2901 309.275 99.1051 310.269 98.7239 311.21C98.471 311.941 97.9498 312.577 97.2426 313.017C97.141 313.098 97.0202 313.159 96.889 313.194C96.7578 313.229 96.6195 313.237 96.4839 313.219C96.3484 313.201 96.2191 313.157 96.1054 313.09C95.9916 313.022 95.8962 312.933 95.8261 312.829C95.3957 312.135 95.2027 311.345 95.2706 310.556L96.4094 309.927C96.3785 310.274 96.4655 310.621 96.6594 310.924C96.6871 310.97 96.7259 311.009 96.7731 311.04C96.8202 311.071 96.8744 311.092 96.9319 311.102C96.9894 311.113 97.0487 311.111 97.1056 311.099C97.1625 311.087 97.2156 311.063 97.2611 311.031C97.5761 310.833 97.8022 310.543 97.8999 310.213C98.0554 309.774 98.1304 309.316 98.1221 308.856C98.1221 307.629 97.7981 307.22 97.1963 307.539L96.5853 307.875V305.961L97.1963 305.626C97.5118 305.429 97.7381 305.139 97.8351 304.809C97.9847 304.369 98.0534 303.91 98.0388 303.451C98.0703 303.095 97.9969 302.737 97.8259 302.413C97.8027 302.367 97.7674 302.326 97.7229 302.294C97.6783 302.262 97.6258 302.24 97.5697 302.23C97.5137 302.219 97.4556 302.221 97.4003 302.234C97.345 302.248 97.2941 302.272 97.2519 302.307C96.9946 302.484 96.8042 302.727 96.7056 303.002C96.5531 303.359 96.4778 303.739 96.4834 304.122L95.3447 304.759C95.3362 304.132 95.4139 303.506 95.5761 302.895C95.7142 302.343 95.9419 301.812 96.252 301.317C96.4736 300.945 96.7906 300.623 97.1778 300.377Z" fill="white"/>
<path d="M96.6304 266.757C97.2476 266.43 97.7105 266.479 98.0191 266.904C98.4231 267.62 98.5961 268.421 98.519 269.218C98.5194 269.881 98.4513 270.544 98.3154 271.196C98.119 272.082 97.8687 272.959 97.5654 273.821L96.2693 277.5L98.7505 276.135V278.122L94.7972 280.305V278.62L96.6489 273.347C96.9081 272.611 97.0933 271.981 97.2136 271.466C97.3245 271.017 97.3834 270.56 97.3895 270.101C97.4102 269.698 97.341 269.295 97.1859 268.915C97.0562 268.678 96.8711 268.621 96.6304 268.752C96.3099 268.983 96.0932 269.308 96.0193 269.667C95.8629 270.201 95.7913 270.752 95.8064 271.303L94.6584 271.932C94.6495 271.196 94.7302 270.462 94.8991 269.741C95.032 269.098 95.2689 268.476 95.6027 267.893C95.8214 267.439 96.1768 267.046 96.6304 266.757Z" fill="white"/>
<path d="M337.379 363.082C337.379 363.082 339.761 366.126 338.382 368.174C337.817 369.015 337.046 369.734 336.126 370.278C334.963 371.027 333.91 371.901 332.992 372.879C330.547 375.481 325.596 379.854 320.894 378.526C314.25 376.699 321.521 371.938 321.521 371.938L337.379 363.082Z" fill="#383626"/>
<path d="M328.98 355.886L329.858 363.137L324.592 369.669L321.521 372.044C321.521 372.044 323.464 376.533 329.481 370.776C333.932 366.508 337.316 363.137 337.316 363.137V355.886H328.98Z" fill="#FFBDA7"/>
<path d="M308.859 357.657C308.859 357.657 310.99 360.812 309.486 362.805C308.87 363.617 308.056 364.298 307.104 364.798C305.887 365.464 304.771 366.263 303.782 367.178C301.149 369.613 295.884 373.654 291.309 372.043C284.852 369.774 292.437 365.517 292.437 365.517L308.859 357.657Z" fill="#383626"/>
<path d="M301.087 349.907L301.401 357.158L295.634 363.358L292.375 365.517C292.375 365.517 293.942 370.111 300.398 364.742C305.224 360.756 308.86 357.601 308.86 357.601L309.424 350.405L301.087 349.907Z" fill="#FFBDA7"/>
<path d="M303.469 264.329L298.33 309.609V310.107L300.398 353.112C300.398 353.112 304.535 355.492 310.678 353.112C310.678 353.112 315.065 325.988 312.809 314.862C312.62 314.013 312.685 313.136 312.997 312.316C315.128 306.282 324.029 280.763 324.718 272.792L303.469 264.329Z" fill="#455A64"/>
<path d="M320.142 281.046L306.666 273.352C306.666 273.352 307.355 278.61 314.125 283.315L317.008 300.359C318.701 295.217 320.581 289.344 322.085 284.196L320.142 281.046Z" fill="#37474F"/>
<path d="M305.475 264.329C305.726 264.495 301.903 277.614 316.131 281.433L320.519 315.809L328.291 358.598C328.291 358.598 333.995 360.48 337.756 357.214C337.756 357.214 340.2 328.817 335.374 315.476C334.988 314.423 334.881 313.306 335.061 312.21C336.314 304.848 340.827 276.064 334.622 265.768L305.475 264.329Z" fill="#455A64"/>
<path d="M335.248 206.704L342.895 235.766C343.374 237.632 343.109 239.588 342.143 241.301C341.025 243.22 339.091 244.671 336.765 245.334C334.44 245.998 331.911 245.822 329.732 244.844C329.544 244.788 329.419 244.678 329.231 244.622L312.056 235.655V206.649H335.248V206.704Z" fill="#FAF5C8"/>
<path d="M312.997 229.622C311.269 229.488 309.532 229.749 307.952 230.379C306.371 231.009 305 231.987 303.971 233.22C301.15 236.486 290.244 248.996 290.244 248.996C290.244 248.996 274.198 241.91 273.445 241.08C272.693 240.25 273.132 238.534 273.32 237.593C273.519 236.381 273.791 235.18 274.135 233.995C274.574 232.998 272.819 233.275 271.816 234.216C270.813 235.157 270.374 237.039 269.873 237.371C269.371 237.703 265.548 233.829 263.73 231.946C261.912 230.064 261.035 228.791 259.781 229.566C258.903 230.12 259.468 231.227 260.784 232.832C261.404 233.497 261.969 234.2 262.476 234.936C262.602 235.212 262.163 235.434 261.975 235.6C261.599 235.877 260.972 236.375 260.909 236.762C260.92 237.004 260.899 237.245 260.847 237.482C260.658 238.036 259.969 238.257 259.718 238.81C259.666 239.196 259.645 239.585 259.656 239.973C259.593 240.25 259.468 240.471 259.405 240.693C259.385 240.95 259.431 241.208 259.54 241.447C259.648 241.687 259.816 241.902 260.032 242.076C261.348 243.46 263.103 243.958 264.795 244.789C266.237 245.508 267.679 245.785 269.308 246.394C270.938 247.003 289.805 258.627 292.876 257.188C295.948 255.749 312.746 240.416 312.746 240.416C317.121 233.995 312.997 229.622 312.997 229.622Z" fill="#E9A5A5"/>
<path d="M311.305 228.514C311.305 228.514 307.356 228.071 302.53 233.164C297.704 238.257 295.322 240.858 295.322 240.858C297.655 243.345 300.453 245.461 303.596 247.113L311.305 228.514Z" fill="#BA68C8"/>
<path d="M311.305 228.514C311.305 228.514 307.356 228.071 302.53 233.164C297.704 238.257 295.322 240.858 295.322 240.858C297.655 243.345 300.453 245.461 303.596 247.113L311.305 228.514Z" fill="#AEA0E1"/>
<path d="M311.304 228.514L327.726 229.505C328.686 229.559 329.624 229.78 330.487 230.155C331.35 230.529 332.121 231.051 332.755 231.689C333.39 232.327 333.876 233.069 334.185 233.873C334.495 234.677 334.622 235.527 334.559 236.375C334.162 243.227 332.576 249.985 329.858 256.413C329.858 256.413 333.806 261.616 334.684 265.879C334.684 265.879 330.296 269.526 318.638 269.526C306.979 269.526 303.532 264.378 303.532 264.378L305.161 251.21C302.953 248.115 302.168 244.392 302.968 240.803C304.347 234.935 311.304 228.514 311.304 228.514Z" fill="#A492E8"/>
<path d="M330.359 200.444C330.359 200.444 331.362 197.073 332.052 197.123C332.741 197.172 332.679 200.167 332.679 200.167C332.679 200.167 335.875 199.89 335.562 200.721C335.248 201.551 331.488 202.381 331.488 202.381L330.359 200.444Z" fill="#FAF5C8"/>
<path d="M335.373 212.24C333.932 221.816 324.78 221.816 324.78 221.816L305.6 214.36C304.518 213.347 303.855 212.04 303.72 210.651C303.532 209.606 303.532 208.541 303.72 207.496C304.346 203.455 307.731 199.138 315.19 197.809C316.821 197.522 318.479 197.374 320.142 197.366C320.957 197.366 321.709 197.416 322.524 197.477C328.29 197.975 332.365 200.355 334.308 204.064C334.743 204.893 335.059 205.767 335.248 206.666C335.632 208.506 335.674 210.388 335.373 212.24Z" fill="#FAF5C8"/>
<path d="M324.781 229.284L315.504 235.705V215.334H324.781V229.284Z" fill="#FFBDA7"/>
<path d="M315.504 226.134C317.568 225.454 319.453 224.411 321.048 223.07C322.642 221.728 323.912 220.116 324.781 218.329V215.339H315.504V226.134Z" fill="#F0997A"/>
<path d="M317.51 200.228C314 200.228 306.478 201.944 305.601 210.137C304.723 218.329 305.601 224.584 310.302 225.193C315.003 225.802 326.097 222.757 327.602 212.24C329.106 201.723 320.957 200.228 317.51 200.228Z" fill="#FFBDA7"/>
<path d="M311.931 213.563V218.379L308.734 217.499L311.931 213.563Z" fill="#F0997A"/>
<path d="M315.505 215.395C316.128 215.395 316.633 214.949 316.633 214.399C316.633 213.848 316.128 213.402 315.505 213.402C314.882 213.402 314.376 213.848 314.376 214.399C314.376 214.949 314.882 215.395 315.505 215.395Z" fill="#383626"/>
<path d="M309.298 213.729C309.3 213.926 309.235 214.119 309.111 214.284C308.988 214.448 308.812 214.577 308.606 214.653C308.4 214.729 308.173 214.75 307.954 214.712C307.735 214.674 307.533 214.58 307.375 214.441C307.216 214.302 307.108 214.124 307.064 213.931C307.02 213.737 307.042 213.537 307.127 213.354C307.212 213.172 307.357 213.016 307.543 212.906C307.728 212.796 307.947 212.738 308.17 212.738C308.318 212.736 308.465 212.761 308.603 212.81C308.74 212.859 308.864 212.932 308.97 213.024C309.075 213.117 309.158 213.226 309.214 213.347C309.271 213.468 309.299 213.598 309.298 213.729Z" fill="#383626"/>
<path d="M306.855 211.687L309.048 210.58C309.048 210.58 308.234 209.805 307.419 210.303C307.155 210.438 306.953 210.65 306.85 210.904C306.747 211.157 306.749 211.434 306.855 211.687Z" fill="#383626"/>
<path d="M310.427 220.322C311.494 220.391 312.555 220.137 313.436 219.602C313.436 219.602 313.624 220.986 312.308 221.263C311.92 221.318 311.522 221.254 311.181 221.083C310.839 220.912 310.573 220.644 310.427 220.322Z" fill="#F0997A"/>
<path d="M308.547 202.996C308.547 202.996 309.863 214.233 327.163 214.565C327.163 214.565 332.366 203.383 322.086 199.785C311.806 196.187 308.547 202.996 308.547 202.996Z" fill="#FAF5C8"/>
<path d="M324.28 215.007C323.152 216.723 323.465 218.772 325.032 219.491C326.035 219.934 328.981 218.938 330.109 217.277C331.237 215.616 330.611 214.122 329.106 213.347C327.602 212.572 325.408 213.291 324.28 215.007Z" fill="#FFBDA7"/>
<path d="M315.505 228.791C315.505 228.791 309.236 235.71 315.505 235.71C321.773 235.71 324.781 229.345 324.781 229.345L315.505 228.791Z" fill="#FFBDA7"/>
<path d="M346.845 254.215C345.403 248.68 341.58 242.148 339.449 238.938L330.673 243.864C330.673 243.864 335.813 251.614 337.38 255.267C338.258 259.585 337.882 267.445 336.879 271.708C336.704 272.437 336.236 273.086 335.562 273.534C333.807 274.697 333.181 275.859 331.864 277.298C330.861 278.405 329.984 278.738 330.109 279.07C330.205 279.254 330.342 279.419 330.511 279.555C330.681 279.691 330.88 279.796 331.096 279.863C331.313 279.93 331.542 279.958 331.771 279.946C332 279.933 332.223 279.88 332.428 279.789C333.323 279.395 334.164 278.912 334.936 278.35C334.426 279.95 333.622 281.465 332.554 282.834C330.172 285.989 330.235 287.816 335.374 287.76C338.634 287.705 341.078 285.712 343.084 278.682C343.648 276.689 344.776 273.147 345.278 270.6C346.845 261.838 347.284 257.852 346.845 254.215Z" fill="#FFBDA7"/>
<path d="M328.479 229.621C328.479 229.621 322.649 234.824 333.806 249.709C333.806 249.709 340.576 249.383 343.71 245.06L339.197 236.535C338.252 234.655 336.764 233.027 334.884 231.814C333.003 230.6 330.794 229.844 328.479 229.621Z" fill="#BA68C8"/>
<path d="M328.479 229.621C328.479 229.621 322.649 234.824 333.806 249.709C333.806 249.709 340.576 249.383 343.71 245.06L339.197 236.535C338.252 234.655 336.764 233.027 334.884 231.814C333.003 230.6 330.794 229.844 328.479 229.621Z" fill="#AEA0E1"/>
</svg>
