<svg width="138" height="52" viewBox="0 0 138 52" fill="none" xmlns="http://www.w3.org/2000/svg">
<g clip-path="url(#clip0_1640_5693)">
<path d="M32.8181 0H0V8.22785H32.8181V0Z" fill="#A492E8"/>
<path d="M20.5112 10.8608H12.3066V19.0887H20.5112V10.8608Z" fill="#A492E8"/>
<path d="M7.05566 1.31641H1.3125V7.0759H7.05566V1.31641Z" fill="white"/>
<path d="M20.5112 21.7217H12.3066V29.9495H20.5112V21.7217Z" fill="#A492E8"/>
<path d="M20.5112 32.5825H12.3066V40.8104H20.5112V32.5825Z" fill="#A492E8"/>
<path d="M27.0747 13L33.4742 40.8101H40.8583L45.2887 25.8354L49.8833 40.8101H57.1032L63.6669 13H55.4623L52.3446 25.8354L48.4065 13H42.4992L38.561 25.8354L35.4433 13H27.0747Z" fill="#AEB1B8"/>
<path d="M75.6455 13H67.1128V40.8101H75.6455V13Z" fill="#AEB1B8"/>
<path d="M89.9214 0H81.3887V40.8101H89.9214V0Z" fill="#AEB1B8"/>
<path d="M75.6455 0H67.1128V8.55696H75.6455V0Z" fill="#A492E8"/>
<path d="M96.6491 6.25293H105.182V13.1643H109.776V19.0884H105.182V32.4175C105.215 32.5327 105.576 34.1289 107.151 34.7213C108.726 35.3137 110.203 34.277 110.269 34.2276V40.4808C108.431 41.1555 105.74 41.7479 102.72 41.139C101.539 40.8922 100.292 40.6289 99.1104 39.658C96.5998 37.5846 96.6326 34.096 96.6491 33.4048V18.9238H93.0391V13.1643H96.6491V6.25293Z" fill="#AEB1B8"/>
<path d="M110.597 13.1646H119.786L124.052 28.4683L128.647 13.1646H138L126.349 46.2405C126.087 46.7835 124.019 50.9139 119.458 51.8354C117.696 52.1748 115.875 52.0035 114.207 51.3418V45.2532C114.909 45.4133 115.638 45.4133 116.34 45.2532C118.342 44.7924 119.326 43.1797 119.458 42.9494C119.843 42.2988 120.068 41.5654 120.114 40.8101L110.597 13.1646Z" fill="#AEB1B8"/>
</g>
<defs>
<clipPath id="clip0_1640_5693">
<rect width="138" height="52" fill="white"/>
</clipPath>
</defs>
</svg>
