<svg width="98" height="65" viewBox="0 0 98 65" fill="none" xmlns="http://www.w3.org/2000/svg">
<path d="M77.5594 65H24.5031C11.7466 65.0075 1.12118 55.2657 0.0823801 42.6101C-0.956421 29.9544 7.93945 18.625 20.528 16.5712C26.3222 6.34555 37.1963 0.0146979 48.9906 0.000215132C56.3437 -0.0265457 63.4861 2.44407 69.2377 7.00413C74.8858 11.4631 78.9017 17.6492 80.6652 24.6068C91.2224 26.2072 98.7546 35.6389 97.9397 46.2377C97.1248 56.8365 88.2383 65.0174 77.5594 65ZM48.9906 8.12533C40.1413 8.13575 31.9827 12.887 27.6375 20.5606L25.7275 23.969L21.8544 24.5987C13.489 25.9937 7.59044 33.5333 8.28101 41.9482C8.97157 50.3631 16.0211 56.8498 24.5031 56.875H77.5594C83.9612 56.8816 89.2873 51.9781 89.7795 45.6247C90.2718 39.2712 85.7639 33.6129 79.4368 32.6424L74.0659 31.8299L72.7517 26.5812C70.0388 15.7214 60.2328 8.10488 48.9906 8.12533Z" fill="#3F9BC9"/>
</svg>
