<svg width="94" height="66" viewBox="0 0 94 66" fill="none" xmlns="http://www.w3.org/2000/svg">
<path d="M46.7724 54.083C50.238 54.083 53.0473 51.2736 53.0473 47.8081C53.0473 44.3426 50.238 41.5332 46.7724 41.5332C43.3069 41.5332 40.4976 44.3426 40.4976 47.8081C40.4976 51.2736 43.3069 54.083 46.7724 54.083Z" fill="#828EA1"/>
<path d="M49.5376 42.9783L71.5822 41.4922C64.8945 44.5471 58.2068 47.6432 51.4778 50.6981C50.8627 48.1386 50.1981 45.5791 49.5376 42.9783Z" fill="#828EA1"/>
<path d="M9.18942 62.5046C8.59083 60.7914 2.10129 41.1122 14.779 23.9471C16.1661 22.0687 27.3082 7.51678 46.6488 7.39294C68.4912 7.24845 80.2277 25.6355 80.913 26.7542C91.1964 43.4941 84.9421 60.8863 84.1495 62.971" stroke="#F28F60" stroke-width="14" stroke-miterlimit="10"/>
</svg>
