<svg width="56" height="64" viewBox="0 0 56 64" fill="none" xmlns="http://www.w3.org/2000/svg">
<path d="M46.6667 21.3333H52.8889C53.714 21.3333 54.5053 21.6544 55.0888 22.226C55.6722 22.7975 56 23.5727 56 24.381V60.9524C56 61.7607 55.6722 62.5358 55.0888 63.1074C54.5053 63.6789 53.714 64 52.8889 64H3.11111C2.28599 64 1.49467 63.6789 0.911223 63.1074C0.327777 62.5358 0 61.7607 0 60.9524V24.381C0 23.5727 0.327777 22.7975 0.911223 22.226C1.49467 21.6544 2.28599 21.3333 3.11111 21.3333H9.33333V18.2857C9.33333 13.436 11.3 8.785 14.8007 5.35576C18.3014 1.92653 23.0493 0 28 0C32.9507 0 37.6986 1.92653 41.1993 5.35576C44.7 8.785 46.6667 13.436 46.6667 18.2857V21.3333ZM6.22222 27.4286V57.9048H49.7778V27.4286H6.22222ZM24.8889 39.619H31.1111V45.7143H24.8889V39.619ZM12.4444 39.619H18.6667V45.7143H12.4444V39.619ZM37.3333 39.619H43.5555V45.7143H37.3333V39.619ZM40.4444 21.3333V18.2857C40.4444 15.0526 39.1333 11.9519 36.7995 9.66575C34.4658 7.37959 31.3005 6.09524 28 6.09524C24.6995 6.09524 21.5342 7.37959 19.2004 9.66575C16.8667 11.9519 15.5556 15.0526 15.5556 18.2857V21.3333H40.4444Z" fill="#90C99C"/>
</svg>
