<svg width="49" height="62" viewBox="0 0 49 62" fill="none" xmlns="http://www.w3.org/2000/svg">
<path d="M39.3556 42.5233C37.5128 42.5129 35.7062 43.0386 34.1531 44.0371L19.0045 33.4054C19.251 32.5349 19.3805 31.635 19.3893 30.7298C19.398 29.8234 19.2682 28.921 19.0045 28.0543L33.729 17.6954C35.4993 18.9566 37.6391 19.5827 39.8053 19.4734C41.9714 19.364 44.0384 18.5256 45.6745 17.0926C47.3107 15.6595 48.4213 13.7149 48.8281 11.5706C49.235 9.42625 48.9146 7.20651 47.9183 5.26739C46.9221 3.32827 45.3076 1.78212 43.3339 0.876949C41.3603 -0.0282214 39.1418 -0.239955 37.0343 0.275688C34.9268 0.791331 33.0525 2.00448 31.7119 3.72055C30.3713 5.43663 29.6421 7.55619 29.6413 9.73927C29.6403 10.4309 29.7181 11.1205 29.873 11.7943L14.7638 22.426C13.2372 21.4714 11.4722 20.9739 9.67501 20.9914C8.40448 20.9914 7.14629 21.2433 5.97247 21.7327C4.79865 22.2221 3.73211 22.9395 2.83371 23.8437C1.93531 24.748 1.22268 25.8216 0.736473 27.0031C0.250261 28.1846 0 29.451 0 30.7298C0 32.0087 0.250261 33.275 0.736473 34.4566C1.22268 35.6381 1.93531 36.7116 2.83371 37.6159C3.73211 38.5202 4.79865 39.2375 5.97247 39.7269C7.14629 40.2163 8.40448 40.4682 9.67501 40.4682C11.468 40.4553 13.225 39.96 14.7638 39.0337L29.9867 49.7402C29.7552 50.5739 29.639 51.4357 29.6413 52.3013C29.6491 54.224 30.2222 56.1013 31.2882 57.6967C32.3543 59.2921 33.8657 60.5341 35.6319 61.2663C37.3982 61.9984 39.3402 62.188 41.2133 61.8109C43.0864 61.4339 44.8067 60.5072 46.1574 59.1477C47.5081 57.7881 48.4287 56.0566 48.8033 54.1712C49.1778 52.2858 48.9896 50.3311 48.2622 48.5532C47.5348 46.7754 46.3008 45.2541 44.7158 44.181C43.1309 43.1079 41.2658 42.5311 39.3556 42.5233Z" fill="#9E8CDE"/>
</svg>
